<?xml version="1.0" encoding="utf-8"?>
<!-- Generator: Adobe Illustrator 21.0.0, SVG Export Plug-In . SVG Version: 6.00 Build 0)  -->
<svg version="1.1" id="Capa_1" xmlns="http://www.w3.org/2000/svg" xmlns:xlink="http://www.w3.org/1999/xlink" x="0px" y="0px"
	 viewBox="0 0 812.1 165" style="enable-background:new 0 0 812.1 165;" xml:space="preserve">
<style type="text/css">
	.st0{fill:#595757;}
</style>
<g>
	<path class="st0" d="M18.5,104.5l-0.9,0.5l-0.7,0.6l-0.4,0.3l-0.3,0.3l-0.2,0.3l-0.2,0.4l-0.2,0.4l-0.2,0.4l-0.3,0.3l-0.1,0.4
		l-0.1,0.4l-0.1,0.4l-0.1,0.4v0.4v0.4l0.1,0.4l0.1,0.4l0.1,0.4l0.1,0.4l0.2,0.4l0.2,0.4l0.2,0.4l0.3,0.3l0.3,0.3l0.3,0.3l0.4,0.3
		l0.8,0.5l1,0.5l1,0.4l1.3,0.4l1.3,0.3l1.5,0.3l1.7,0.2l1.8,0.1l2,0.1l2.1,0.1l2-0.1l1.8-0.1L37,117l1.5-0.2l1.3-0.2l1.2-0.2
		l1.1-0.4l0.9-0.3l0.8-0.4l0.7-0.5l0.6-0.6l0.5-0.5l0.2-0.4L46,113l0.1-0.4l0.1-0.4l0.2-0.7l0.1-0.9l-0.1-0.6l-0.1-0.6l-0.2-0.5
		l-0.2-0.4l-0.3-0.4l-0.3-0.4l-0.4-0.4l-0.5-0.3l-0.5-0.3l-0.6-0.2l-0.7-0.2l-0.7-0.2l-0.8-0.2l-0.9-0.1l-1-0.1l-1-0.1L18.5,104.5
		L18.5,104.5z M30.3,56.7l-1,0.1l-1,0.1l-0.9,0.2l-0.9,0.3l-0.9,0.4l-0.7,0.4l-0.7,0.5l-0.7,0.6L22.9,60l-0.6,0.7l-0.4,0.8l-0.4,0.9
		l-0.3,0.9l-0.1,0.9l-0.1,1l-0.1,1l0.1,1l0.1,1l0.2,1l0.2,0.9l0.4,0.9l0.4,0.8l0.6,0.7l0.6,0.7l0.7,0.6l0.7,0.6l0.8,0.4l0.8,0.4
		l0.9,0.2l0.9,0.2l1,0.1h1h1.1l1-0.1l1-0.2l0.9-0.2l0.8-0.4l0.8-0.4l0.7-0.6l0.6-0.6l0.6-0.7l0.5-0.7l0.4-0.8l0.4-0.9l0.2-0.9l0.2-1
		l0.1-1l0.1-1l-0.1-1.1l-0.1-1l-0.2-0.9L39,62.3l-0.4-0.9l-0.4-0.7L37.7,60l-0.6-0.7l-0.7-0.6l-0.7-0.5l-0.8-0.4l-0.8-0.4l-0.9-0.3
		l-0.9-0.2l-1-0.1L30.3,56.7L30.3,56.7z M13.5,80.3l-1.1-0.6l-1-0.7l-0.9-0.7l-0.9-0.7l-0.8-0.7L8.1,76l-0.6-0.9l-0.6-0.9l-0.6-0.9
		l-0.4-0.9l-0.4-1l-0.3-1l-0.2-1l-0.2-1l-0.1-1v-1.1v-1l0.1-1l0.2-1l0.2-0.9l0.2-1l0.3-0.9L6,59.6l0.4-0.9l0.5-0.9L7.4,57L8,56.2
		l0.6-0.8l0.7-0.7L10,54l0.8-0.7l0.9-0.7l0.9-0.7l0.9-0.6l1-0.6l1-0.6l1-0.4l1-0.5l1.1-0.4l1.2-0.4l1.2-0.3l1.2-0.2l1.3-0.2l1.2-0.2
		l1.3-0.1l1.3-0.1l1.4-0.1h1.4h1.5l1.5,0.1l1.5,0.2l1.5,0.2l1.5,0.2l1.5,0.4l1.5,0.5l1.4,0.5l0.2-1.5l0.3-1.4l0.4-1.3l0.4-1.2
		l0.3-0.6l0.3-0.6l0.3-0.5l0.3-0.5l0.4-0.5l0.4-0.4l0.4-0.4l0.4-0.4l0.4-0.4l0.5-0.4l0.4-0.3l0.6-0.3l0.5-0.2l0.5-0.2l0.6-0.2
		l0.6-0.2l1.2-0.4l1.4-0.2l1.5-0.2l1.5-0.1l0.7,0.1h0.9l1.2,0.1l1.4,0.1l0.9,0.1l0.6,0.1l-0.4,12.1h-0.2l-0.4-0.1l-1.1-0.1l-0.9-0.1
		h-0.8h-0.6h-0.9l-0.8,0.1l-0.7,0.1L54,49.5l-0.6,0.2l-0.6,0.1L52.2,50l-0.4,0.2l-0.4,0.2L51,50.7l-0.4,0.4l-0.3,0.4l-0.2,0.4
		l-0.2,0.5l-0.2,0.5l-0.2,0.5l0.7,0.8l0.7,0.7l0.7,0.7l0.6,0.8l0.6,0.8l0.5,0.8l0.5,0.8l0.4,0.8l0.4,0.9l0.3,0.9l0.2,0.8l0.2,0.9
		l0.2,0.9l0.1,0.9l0.1,0.9l0.1,0.9l-0.1,1l-0.1,1l-0.1,1l-0.2,1l-0.2,0.9l-0.2,0.9l-0.4,0.9l-0.4,0.9l-0.4,0.8l-0.5,0.8l-0.5,0.8
		l-0.6,0.7l-0.7,0.7l-0.7,0.7L50,79.4L49.1,80l-0.9,0.6l-0.9,0.6l-0.9,0.5l-0.9,0.5l-1,0.4l-1,0.4l-1,0.4l-1.1,0.4L40.2,84L39,84.2
		l-1.2,0.2l-1.2,0.2l-1.3,0.1L34,84.8l-1.4,0.1l-1.5-0.1l-1.3-0.1h-1.2l-1.2-0.1l-1.2-0.1l-1-0.1l-1-0.2l-1-0.2l-0.9-0.2l-0.9,0.4
		l-0.7,0.4l-0.6,0.5l-0.6,0.5l-0.4,0.5l-0.3,0.6l-0.1,0.6L18.5,88v0.5l0.1,0.4l0.1,0.4l0.1,0.4l0.2,0.4l0.2,0.3l0.2,0.3l0.4,0.3
		l0.4,0.3l0.4,0.2l0.4,0.2l0.6,0.1l0.6,0.2l0.6,0.1l0.7,0.1l0.7,0.1L41.8,93h1.3l1.1,0.1l1.1,0.1l1,0.2l1,0.2l1,0.2l1,0.3l0.9,0.2
		l0.9,0.3L52,95l0.9,0.4l0.8,0.4l0.8,0.4l0.7,0.4l0.7,0.5l0.7,0.5l0.7,0.6l0.6,0.6l0.6,0.6l0.6,0.6l0.5,0.6l0.4,0.7l0.4,0.7l0.4,0.7
		l0.3,0.7l0.3,0.7l0.2,0.7l0.2,0.8l0.1,0.8l0.1,0.9l0.1,0.8v0.9v1.1l-0.1,1l-0.1,1l-0.2,1l-0.2,0.9l-0.4,0.9l-0.4,0.9l-0.5,0.9
		l-0.5,0.8l-0.6,0.8l-0.6,0.8l-0.7,0.7l-0.7,0.7l-0.9,0.7l-0.9,0.6l-1,0.6l-1,0.6l-1.1,0.6l-1.1,0.5l-1.2,0.4l-1.2,0.4l-1.2,0.4
		l-1.3,0.3l-1.3,0.3l-1.4,0.3l-1.5,0.2l-1.5,0.2l-1.5,0.2l-1.7,0.1l-1.7,0.1l-1.7,0.1l-1.8,0.1l-2-0.1h-2l-1.8-0.1l-1.8-0.1
		l-1.8-0.1l-1.7-0.2l-1.6-0.2l-1.5-0.2l-1.5-0.2l-1.3-0.3l-1.3-0.3l-1.3-0.3l-1.2-0.4l-1.1-0.4l-1.1-0.4l-1-0.5l-1-0.5l-0.9-0.5
		l-0.8-0.5l-0.8-0.6l-0.7-0.6l-0.7-0.6l-0.6-0.7L2,118.7L1.6,118l-0.4-0.8l-0.3-0.8l-0.3-0.8l-0.2-0.9l-0.2-0.9l-0.1-0.9L0,112
		l0.1-1l0.1-0.9l0.2-0.9l0.2-0.9l0.3-0.9l0.4-0.8l0.4-0.8l0.6-0.7l0.6-0.7l0.7-0.6l0.7-0.6l0.7-0.6l0.9-0.5l0.9-0.4l0.9-0.4l1-0.4
		l-0.6-0.4l-0.7-0.4l-0.6-0.5l-0.5-0.4l-0.5-0.5l-0.5-0.5l-0.2-0.6l-0.4-0.5l-0.3-0.6L4.1,96l-0.2-0.6l-0.2-0.6l-0.2-0.6l-0.1-0.7
		l-0.1-0.7l-0.1-0.7l0.1-1l0.1-1l0.2-1l0.2-0.9l0.4-0.9l0.4-0.9l0.6-0.8l0.6-0.8l0.7-0.7l0.8-0.7l0.8-0.7L9,82.1l1-0.5l1.1-0.5
		l1.2-0.5L13.5,80.3L13.5,80.3z M67.9,106.3V28.6h16.6V56l0.7-1l0.8-1l0.8-0.9l0.9-0.9l0.9-0.8l0.9-0.7l0.9-0.6l1-0.6l1-0.5l1.1-0.4
		l1-0.4l1.2-0.3l1.2-0.2l1.2-0.1l1.2-0.1l1.3-0.1l1.2,0.1l1.1,0.1l1.1,0.1l1.1,0.1l1,0.2l1,0.2l1,0.2l0.9,0.3l0.9,0.4l0.9,0.4
		l0.8,0.4l0.7,0.5l0.7,0.5l0.7,0.6l0.6,0.6l0.6,0.7l0.6,0.7l0.5,0.7l0.5,0.8l0.4,0.8l0.4,0.9l0.4,0.9l0.4,1l0.3,1l0.2,1l0.2,1.1
		l0.2,1.2l0.2,1.2l0.1,1.2l0.1,1.3l0.1,1.3l0.1,1.3v37.3h-16.7V70.1l-0.1-1.3l-0.1-1.2l-0.2-1.1l-0.2-1l-0.3-1l-0.3-0.9l-0.4-0.8
		l-0.4-0.7l-0.6-0.6l-0.6-0.6l-0.6-0.5L98.4,60l-0.7-0.3l-0.9-0.2l-0.9-0.1l-1-0.1l-1.1,0.1l-1.1,0.1l-0.5,0.1l-0.5,0.2L91.2,60
		l-0.5,0.2l-0.4,0.2l-0.5,0.2l-0.4,0.3L89,61.2l-0.8,0.7l-0.7,0.9l-0.6,0.9l-0.6,1l-0.5,1.1l-0.4,1.1l-0.3,1.2l-0.2,1.3l-0.1,1.3
		l-0.1,1.5v34L67.9,106.3L67.9,106.3z M179.6,57.4l0.9-1.2l0.9-1.2l0.9-1l1-1l1-0.9l1-0.9l1.1-0.7l1-0.7l1.2-0.6l1.2-0.5l1.2-0.4
		l1.1-0.3l1.3-0.2l1.3-0.2l1.3-0.1l1.4-0.1h1l1,0.1l1,0.1l1,0.1l0.9,0.2l0.9,0.2l0.9,0.2l0.9,0.3l0.8,0.3l0.7,0.4l0.7,0.4l0.7,0.4
		l0.7,0.5l0.6,0.5l0.6,0.6l0.6,0.6l0.5,0.6l0.5,0.7l0.5,0.7l0.4,0.7l0.4,0.7l0.4,0.9l0.4,0.8l0.2,0.9l0.3,0.9l0.2,0.9l0.2,1l0.2,1
		l0.1,1l0.1,1.1l0.1,1.2l0.1,1.2v39.6h-16.6V69.4v-1.1l-0.1-1l-0.1-0.9l-0.2-0.9l-0.2-0.9l-0.3-0.8l-0.4-0.7l-0.5-0.7l-0.5-0.6
		l-0.6-0.5l-0.6-0.4l-0.7-0.4l-0.7-0.2l-0.7-0.2L192,60l-0.9-0.1l-1,0.1l-1,0.2l-1,0.2l-0.9,0.4l-0.9,0.5l-0.8,0.6l-0.8,0.7
		l-0.7,0.9l-0.7,0.9l-0.6,0.9l-0.4,1.1l-0.4,1.1l-0.2,1.2l-0.2,1.3l-0.1,1.3l-0.1,1.4v33.6h-16.5V69.6v-1.1l-0.1-1.1l-0.1-1
		l-0.2-0.9l-0.3-0.9l-0.3-0.8l-0.4-0.7l-0.4-0.6l-0.4-0.6l-0.6-0.5l-0.6-0.4l-0.6-0.3l-0.7-0.2l-0.7-0.2l-0.8-0.1l-0.9-0.1l-1,0.1
		l-1,0.1l-0.9,0.2l-0.9,0.4l-0.8,0.5l-0.8,0.5l-0.7,0.6l-0.7,0.8l-0.6,0.8l-0.6,0.9l-0.5,1l-0.4,1l-0.3,1l-0.2,1.2l-0.1,1.2
		l-0.1,1.2v34.7h-16.5V48.7h15.3v8.8l0.8-1.2l0.8-1.2l0.8-1l0.9-1l0.9-0.9l1-0.8l1-0.7l1-0.7l1.1-0.6l1-0.6l1.2-0.4l1.1-0.4l1.2-0.2
		l1.2-0.2l1.3-0.1l1.3-0.1l1.5,0.1l1.3,0.1l1.3,0.2l1.3,0.2l1.2,0.4l1.2,0.4l1,0.5l1,0.6l1,0.6l0.9,0.7l0.9,0.9l0.8,0.9l0.7,1l0.7,1
		l0.7,1.2L179.6,57.4L179.6,57.4z"/>
	<path class="st0" d="M271.2,68.8l-0.2-1.6l-0.4-1.5l-0.4-1.5l-0.5-1.3l-0.6-1.3l-0.7-1.2l-0.8-1.1l-0.9-1l-0.5-0.5l-0.4-0.4
		l-0.5-0.4l-0.6-0.4l-0.5-0.3l-0.6-0.4l-0.5-0.2l-0.6-0.3l-0.6-0.2l-0.5-0.2l-0.6-0.2l-0.6-0.1l-0.6-0.1l-0.6-0.1l-0.6-0.1h-0.7
		h-0.9l-0.9,0.1l-0.8,0.1l-0.8,0.1l-0.8,0.2l-0.8,0.3l-0.7,0.3l-0.7,0.4l-0.7,0.4l-0.7,0.4l-0.7,0.6l-0.6,0.5l-0.6,0.6l-0.6,0.7
		l-0.6,0.7l-0.6,0.7l-0.6,0.8l-0.5,0.9l-0.4,0.9l-0.4,0.9l-0.4,1l-0.4,1l-0.4,1l-0.2,1l-0.2,1l-0.2,1.2l-0.2,1.1l-0.1,1.2l-0.1,1.2
		l-0.1,1.2l-0.1,1.3v1.3v1.3l0.2,1.2l0.1,1.2l0.1,1.2l0.2,1.2l0.2,1.1l0.2,1.1l0.2,1l0.3,1l0.3,1l0.4,0.9l0.4,1l0.4,0.9l0.4,0.9
		l0.5,0.9l0.5,0.8l0.6,0.7l0.6,0.7l0.6,0.6l0.6,0.6l0.7,0.6l0.6,0.5l0.7,0.4l0.7,0.4l0.7,0.4l0.7,0.3l0.7,0.3l0.8,0.2l0.8,0.2
		l0.8,0.1l0.9,0.1l0.9,0.1l1.3-0.1l1.2-0.2l0.6-0.1l0.6-0.2l0.5-0.2l0.6-0.2l0.5-0.2l0.6-0.3l0.5-0.3l0.5-0.3l0.5-0.3l0.5-0.4
		l0.5-0.4l0.5-0.4l0.9-1l0.8-1.1l0.7-1.2l0.7-1.2l0.6-1.4l0.5-1.5l0.4-1.5l0.4-1.7l7.8,1.5l-0.3,1.3l-0.3,1.1l-0.2,1.2l-0.4,1
		l-0.4,1l-0.4,1l-0.4,1l-0.4,0.9l-0.5,0.9l-0.5,0.9l-0.6,0.9l-0.6,0.8l-0.6,0.8l-0.6,0.7l-0.7,0.7l-0.7,0.7l-0.7,0.6l-0.7,0.6
		l-0.8,0.6l-0.8,0.5l-0.9,0.5l-0.9,0.4l-0.9,0.4l-0.9,0.4l-0.9,0.3l-0.9,0.3l-1,0.2l-1,0.2l-1,0.2l-1,0.1l-1.1,0.1l-1.1,0.1
		l-1.3-0.1l-1.3-0.1l-1.3-0.2l-1.3-0.3l-1.2-0.3l-1.2-0.3l-1.2-0.4l-1.2-0.5l-1.1-0.5l-1-0.6l-1-0.7l-1-0.8l-0.9-0.8l-0.9-0.9
		l-0.9-1l-0.9-1l-0.8-1l-0.7-1.1l-0.7-1.2l-0.7-1.2l-0.6-1.2l-0.6-1.3l-0.5-1.4l-0.5-1.3l-0.4-1.4l-0.4-1.4l-0.2-1.5l-0.2-1.5
		l-0.2-1.5l-0.1-1.7l-0.1-1.7l-0.1-1.7l0.1-1.7l0.1-1.6l0.1-1.6l0.2-1.6l0.2-1.5l0.3-1.5l0.4-1.4l0.4-1.4l0.5-1.3l0.5-1.3l0.6-1.3
		l0.6-1.2l0.7-1.2l0.8-1.2l0.8-1.1l0.9-1l0.9-1l0.9-0.9l1-0.9l1-0.8l1-0.7l1.1-0.7l1.1-0.6l1.2-0.6l1.2-0.5l1.2-0.4l1.2-0.4l1.3-0.3
		l1.3-0.2l1.3-0.2l1.4-0.1h1.4h1l1,0.1l1,0.1l1,0.1l0.9,0.2l0.9,0.2l0.9,0.3l0.9,0.3l0.9,0.4l0.9,0.4l0.8,0.5l0.8,0.5l0.8,0.5
		l0.7,0.6l0.7,0.6l0.7,0.6l0.7,0.7l0.6,0.7l0.6,0.7l0.6,0.8l0.5,0.8l0.5,0.9l0.5,0.9l0.5,0.9l0.4,1l0.4,1l0.3,1l0.4,1l0.2,1.1
		l0.3,1.1l0.2,1.2l0.2,1.2L271.2,68.8L271.2,68.8z M312.3,100.6h0.9l0.9-0.1l0.9-0.1l0.9-0.2l0.9-0.2l0.8-0.2l0.8-0.3l0.8-0.4
		l0.7-0.4l0.7-0.5l0.7-0.5l0.7-0.6l0.7-0.6l0.6-0.7l0.5-0.7l0.6-0.7l0.6-0.9l0.5-0.8l0.5-0.9l0.4-0.9l0.4-1l0.4-0.9l0.3-1l0.3-1
		l0.3-1l0.2-1.2l0.3-1.1l0.1-1.2l0.1-1.2l0.1-1.2v-1.3l0.1-1.3l-0.1-1.3v-1.3l-0.1-1.2l-0.1-1.2l-0.1-1.2l-0.3-1.1l-0.2-1.2l-0.3-1
		l-0.2-1l-0.4-1l-0.4-1l-0.4-0.9l-0.5-0.9l-0.4-0.9l-0.5-0.9l-0.5-0.8l-0.6-0.7l-0.6-0.7l-0.6-0.7l-0.6-0.6l-0.7-0.6l-0.7-0.5
		l-0.7-0.5l-0.8-0.4l-0.7-0.4l-0.8-0.3l-0.8-0.2l-0.9-0.2l-0.9-0.1l-0.9-0.1l-0.9-0.1h-0.9h-1l-0.9,0.1l-0.9,0.1l-0.9,0.1l-0.9,0.2
		l-0.8,0.2l-0.8,0.3l-0.8,0.4l-0.7,0.4l-0.7,0.4l-0.7,0.5l-0.7,0.6l-0.6,0.6l-0.6,0.6l-0.6,0.7l-0.6,0.7l-0.6,0.8l-0.5,0.9l-0.4,0.9
		l-0.4,0.9l-0.4,1l-0.3,1l-0.4,1l-0.2,1l-0.3,1.1l-0.2,1.1l-0.2,1.2l-0.2,1.2l-0.1,1.2l-0.1,1.3l-0.1,1.3v1.3v1.3l0.1,1.3l0.1,1.2
		l0.1,1.2l0.2,1.2l0.2,1.1l0.2,1.2l0.2,1l0.3,1l0.3,1l0.4,0.9l0.4,1l0.4,0.9l0.5,0.9l0.5,0.8l0.6,0.8l0.6,0.8l0.6,0.7l0.6,0.7
		l0.6,0.6l0.7,0.6l0.7,0.6l0.7,0.4l0.7,0.4l0.8,0.4l0.8,0.3l0.8,0.2l0.9,0.2l0.9,0.2l0.9,0.1l0.9,0.1h0.8V100.6z M312.3,107.8
		l-1.4-0.1l-1.4-0.1l-1.4-0.1l-1.3-0.3l-1.3-0.3l-1.3-0.4l-1.2-0.4l-1.2-0.5l-1.2-0.6l-1.1-0.6l-1.1-0.7l-1-0.7l-1-0.8l-1-0.9
		l-0.9-0.9l-0.9-1l-0.9-1l-0.8-1.1l-0.7-1.2l-0.7-1.2l-0.7-1.2l-0.5-1.2l-0.6-1.3l-0.4-1.4l-0.4-1.4l-0.4-1.4l-0.3-1.5L287,84
		l-0.2-1.6l-0.2-1.6l-0.1-1.7v-1.7v-1.7l0.1-1.6l0.2-1.6l0.2-1.6l0.2-1.5l0.3-1.5l0.4-1.5l0.4-1.4l0.4-1.3l0.6-1.3l0.5-1.3l0.7-1.2
		l0.7-1.2l0.7-1.1l0.8-1.1l0.9-1.1l0.9-1l0.9-0.9l1-0.9l1-0.8l1-0.7l1.1-0.7l1.1-0.6l1.2-0.6l1.2-0.5l1.2-0.4l1.3-0.4l1.3-0.3
		l1.3-0.2l1.4-0.2l1.4-0.1h1.4h1.5l1.4,0.1l1.3,0.2l1.4,0.2l1.3,0.3l1.3,0.4l1.2,0.4l1.2,0.5l1.2,0.6l1.1,0.6l1.1,0.7l1,0.7l1,0.8
		l1,0.9l0.9,0.9l0.9,1l0.9,1l0.8,1.1l0.8,1.2l0.7,1.2l0.7,1.2l0.6,1.3l0.5,1.3l0.5,1.3l0.4,1.4l0.4,1.4l0.3,1.5l0.2,1.5l0.2,1.6
		l0.1,1.6l0.1,1.6l0.1,1.7l-0.1,1.7l-0.1,1.7l-0.1,1.6l-0.2,1.6l-0.2,1.5l-0.3,1.5l-0.4,1.4l-0.4,1.4l-0.4,1.4l-0.5,1.3l-0.6,1.2
		l-0.6,1.2l-0.7,1.2l-0.7,1.2l-0.8,1.1l-0.9,1l-0.9,1l-0.9,0.9l-1,0.9l-1,0.8l-1,0.7l-1.1,0.7l-1.1,0.6l-1.2,0.6L322,106l-1.3,0.4
		l-1.2,0.4l-1.3,0.3l-1.4,0.3l-1.4,0.1l-1.4,0.1L312.3,107.8L312.3,107.8z M349.8,106.3V48.6h7.9v10.6l0.9-1.5l0.9-1.4l1-1.3l1-1.2
		l1-1.1l1-1l1.1-0.9l1.2-0.8l1.2-0.7l1.2-0.6l1.3-0.5l1.3-0.4l1.3-0.3l1.4-0.2l1.4-0.1l1.5-0.1h1.1l1.1,0.1l1.1,0.1l1,0.2l1,0.2
		l0.9,0.2l0.9,0.3l0.9,0.3l0.9,0.4l0.8,0.4l0.8,0.4l0.7,0.6l0.7,0.6l0.7,0.6l0.7,0.7l0.6,0.7l0.5,0.7l0.6,0.8l0.5,0.9l0.5,0.9
		l0.4,0.9l0.4,0.9l0.4,1l0.3,1l0.2,1l0.2,1.1l0.2,1.2l0.2,1.2l0.1,1.3l0.1,1.3v1.3l0.1,1.3v36.5h-8.3V69.1l-0.1-1.8l-0.1-1.6
		l-0.2-1.5l-0.4-1.4l-0.2-0.7l-0.2-0.6l-0.2-0.6l-0.3-0.6l-0.3-0.6l-0.3-0.6l-0.4-0.6l-0.4-0.5l-0.4-0.4l-0.4-0.5l-0.4-0.4l-0.5-0.4
		l-0.4-0.4l-0.6-0.3l-0.5-0.3l-0.6-0.2l-0.5-0.2l-0.6-0.2l-0.6-0.2l-0.6-0.1l-0.7-0.1l-0.7-0.1l-0.7-0.1h-0.7h-0.9l-0.9,0.1
		l-0.8,0.1l-0.9,0.2l-0.8,0.2l-0.8,0.2l-0.8,0.3l-0.7,0.3l-0.7,0.4l-0.7,0.4l-0.6,0.7l-0.7,0.5l-0.6,0.6l-0.7,0.6l-0.6,0.6l-0.6,0.7
		l-0.5,0.7l-0.6,0.8l-0.5,0.7l-0.5,0.8l-0.4,0.9l-0.4,0.8l-0.4,0.9l-0.3,0.9l-0.3,0.9l-0.2,0.9l-0.2,1l-0.2,1l-0.1,1l-0.1,1
		l-0.1,1.1v1v31.9H349.8L349.8,106.3z M412.7,84.8V54.9h-10v-6.3h10V34.9l8.6-0.9v14.6H435v6.3h-13.7V85l0.1,2.3l0.1,2.1l0.1,1.9
		l0.2,1.6l0.3,1.5l0.4,1.2l0.2,0.6l0.2,0.5l0.3,0.4l0.2,0.4l0.3,0.3l0.3,0.4l0.3,0.3l0.4,0.2l0.4,0.3l0.4,0.2l0.4,0.2l0.5,0.2l1,0.3
		l1.2,0.2l1.2,0.1l1.3,0.1h0.9l0.9-0.1l0.7-0.1l0.7-0.1l0.7-0.1l0.7-0.1l0.7-0.1l0.7-0.2v7.2l-0.9,0.2l-0.9,0.2l-0.9,0.1l-0.9,0.2
		l-0.9,0.1l-0.9,0.1h-0.9l-0.9,0.1l-1.3-0.1l-1.2-0.1l-1.2-0.1l-1.1-0.2l-1.1-0.3l-1-0.3l-1-0.3l-0.9-0.4l-0.9-0.4l-0.9-0.5
		l-0.8-0.6l-0.7-0.6l-0.7-0.7l-0.7-0.7l-0.6-0.8l-0.7-0.6l-0.3-0.5l-0.3-0.6l-0.2-0.5l-0.3-0.6l-0.4-1.3l-0.3-1.5l-0.1-0.9l-0.1-1
		l-0.1-1.2l-0.1-1.3l-0.1-1.5v-1.6l-0.1-1.8V84.8L412.7,84.8z M491.2,90.8l-0.4,1l-0.4,1l-0.4,0.9l-0.5,1l-0.5,0.9l-0.5,0.9
		l-0.5,0.9l-0.6,0.8l-0.6,0.8l-0.6,0.7l-0.6,0.7l-0.7,0.7l-0.7,0.7l-0.7,0.6l-0.7,0.6l-0.7,0.5l-0.9,0.6l-0.8,0.5l-0.9,0.4l-0.9,0.4
		l-0.9,0.4l-0.9,0.4l-0.9,0.3l-1,0.3l-1,0.2l-1,0.2l-1,0.2l-1,0.1l-1,0.1l-1.1,0.1l-1,0.1l-1.2,0.1l-1.4-0.1l-1.4-0.1l-1.4-0.2
		l-1.3-0.3l-1.3-0.3l-1.3-0.3l-1.2-0.4l-1.2-0.5l-1.2-0.5l-1.2-0.6l-1-0.7l-1-0.7l-1-0.8l-1-0.9l-0.9-0.9l-0.9-1l-0.9-1.1l-0.8-1.1
		l-0.7-1.1l-0.7-1.2l-0.7-1.2l-0.6-1.3l-0.5-1.3l-0.4-1.4l-0.4-1.4l-0.4-1.5l-0.3-1.5l-0.4-1.5l-0.2-1.6l-0.1-1.7l-0.1-1.7l-0.1-1.7
		l0.1-1.6l0.1-1.7l0.1-1.6l0.2-1.4l0.2-1.5l0.3-1.5l0.4-1.4l0.4-1.4l0.5-1.3l0.5-1.3l0.6-1.2l0.7-1.3l0.7-1.2l0.7-1.2l0.8-1.1l0.9-1
		l0.9-1l1-1l1-0.9l1-0.8l1-0.8l1.1-0.7l1.1-0.6l1.2-0.6l1.2-0.5l1.2-0.4l1.3-0.4l1.3-0.3l1.3-0.2l1.4-0.2l1.4-0.1h1.4h1.5l1.4,0.1
		l1.3,0.1l1.3,0.2l1.3,0.3l1.3,0.3l1.2,0.4l1.2,0.5l1.2,0.5l1.1,0.6l1,0.7l1,0.7l1,0.8l1,0.9l0.9,0.9l0.9,1l0.9,1l0.7,1l0.7,1.1
		l0.7,1.2l0.6,1.2l0.6,1.2l0.5,1.3l0.4,1.3l0.4,1.4l0.3,1.4l0.3,1.5l0.2,1.5l0.2,1.5l0.2,1.7l0.1,1.7v1.6V78h-42v0.3v1.3l0.1,1.2
		l0.1,1.2l0.1,1.2l0.2,1.2l0.2,1.1l0.2,1l0.2,1l0.3,1l0.3,1l0.4,0.9l0.4,0.9l0.5,0.9l0.4,0.8l0.6,0.8l0.6,0.7l0.6,0.7l0.6,0.7
		l0.6,0.6l0.7,0.6l0.7,0.5l0.7,0.5l0.7,0.4l0.8,0.4l0.8,0.3l0.8,0.3l0.9,0.2l0.9,0.2l0.9,0.1l0.9,0.1l1,0.1l1,0.1l1.3-0.1l1.3-0.1
		l1.2-0.2l1.2-0.3l1.2-0.4l1.1-0.5l1.1-0.6l1-0.7l1-0.8l0.9-0.9l0.9-0.9l0.9-1l0.7-1.1l0.7-1.1l0.6-1.2l0.6-1.3L491.2,90.8
		L491.2,90.8z M450.1,71.8h32.5l-0.1-1l-0.1-1l-0.1-1l-0.2-0.9l-0.2-0.9l-0.2-0.9l-0.2-0.9l-0.2-0.8l-0.3-0.8l-0.4-0.8l-0.3-0.7
		l-0.4-0.7l-0.4-0.7L479,60l-0.4-0.6l-0.6-0.6l-0.5-0.6l-0.5-0.6l-0.6-0.5l-0.5-0.4l-0.6-0.4l-0.7-0.4l-0.7-0.4l-0.7-0.3l-0.7-0.2
		l-0.7-0.2l-0.7-0.2l-0.8-0.1l-0.8-0.1l-0.8-0.1l-0.9-0.1h-0.9H466l-0.9,0.1l-0.8,0.1l-0.8,0.1l-0.8,0.1l-0.8,0.2l-0.7,0.2l-0.7,0.3
		l-0.7,0.2l-0.7,0.4l-0.7,0.4l-0.6,0.4l-0.6,0.4l-0.6,0.5l-0.6,0.5l-0.5,0.6l-0.6,0.6l-0.5,0.6l-0.5,0.7l-0.4,0.7l-0.4,0.7l-0.4,0.7
		l-0.4,0.8l-0.4,0.8l-0.3,0.9l-0.3,0.9L451,67l-0.2,0.9l-0.2,1l-0.2,1l-0.2,1L450.1,71.8L450.1,71.8z M503.4,106.3V48.6h7.8v10.6
		l0.9-1.5l0.9-1.4l1-1.3l1-1.2l1-1.1l1-1l1.1-0.9l1.1-0.8l1.2-0.7l1.2-0.6l1.2-0.5l1.4-0.4l1.3-0.3l1.4-0.2l1.4-0.1l1.5-0.1h1.2
		l1.1,0.1l1,0.1l1,0.2l1,0.2l1,0.2l0.9,0.3l0.9,0.3l0.9,0.4l0.8,0.4l0.8,0.4l0.7,0.6l0.7,0.6l0.7,0.6l0.7,0.7l0.6,0.7l0.5,0.7
		l0.6,0.8l0.5,0.9l0.5,0.9l0.4,0.9l0.4,0.9l0.4,1l0.3,1l0.2,1.1l0.2,1.1l0.2,1.2l0.2,1.2l0.1,1.3l0.1,1.3l0.1,1.3v1.3v36.5h-8.3
		V69.1l-0.1-1.8l-0.2-1.6l-0.2-1.5l-0.3-1.4l-0.2-0.7l-0.3-0.6l-0.2-0.6l-0.3-0.6l-0.3-0.6l-0.3-0.6l-0.4-0.6L537,58l-0.4-0.4
		l-0.4-0.5l-0.5-0.4l-0.4-0.4l-0.5-0.4l-0.5-0.3l-0.5-0.3l-0.6-0.2l-0.6-0.2l-0.6-0.2l-0.6-0.2l-0.6-0.1l-0.6-0.1l-0.7-0.1l-0.7-0.1
		h-0.7h-0.9l-0.9,0.1l-0.9,0.1l-0.8,0.2l-0.8,0.2l-0.8,0.2l-0.8,0.3l-0.7,0.3l-0.7,0.4l-0.7,0.4l-0.7,0.4l-0.7,0.5l-0.7,0.6
		l-0.6,0.6l-0.6,0.6l-0.6,0.7l-0.6,0.7l-0.5,0.8l-0.6,0.7l-0.4,0.8l-0.4,0.9l-0.4,0.8l-0.4,0.9l-0.3,0.9l-0.3,0.9l-0.2,0.9l-0.2,1
		l-0.2,1l-0.1,1l-0.1,1v1.1l-0.1,1V106h-8V106.3z M564,106.3V48.6h8.6v57.6H564V106.3z M564,36.9v-8.4h8.6v8.4H564L564,36.9z
		 M632.3,28.5v77.8h-7.7V94.8l-0.7,1.5l-0.8,1.4l-0.9,1.3l-0.9,1.3l-1,1.1l-1,1l-1.1,1l-1.1,0.9l-1.2,0.8l-1.2,0.7l-1.3,0.6
		l-1.2,0.5l-1.3,0.3l-1.4,0.3l-1.4,0.1l-1.4,0.1l-1.2-0.1l-1.2-0.1l-1.2-0.2l-1-0.3l-1.1-0.2l-1-0.4l-1-0.4l-1-0.5l-1-0.6l-0.9-0.6
		l-0.9-0.7l-1.1-0.6l-0.9-0.9l-0.9-0.9l-0.9-0.9l-0.8-1l-0.7-1l-0.7-1.1l-0.6-1.2l-0.6-1.2l-0.6-1.2l-0.5-1.2l-0.4-1.3l-0.4-1.4
		l-0.4-1.3l-0.3-1.4l-0.3-1.4l-0.2-1.5l-0.2-1.5l-0.1-1.6l-0.1-1.6l-0.1-1.6l0.1-1.7l0.1-1.6l0.1-1.6l0.2-1.5l0.2-1.5l0.2-1.5
		l0.3-1.5l0.4-1.3l0.4-1.4l0.5-1.3l0.5-1.3l0.6-1.2l0.6-1.2l0.7-1.1l0.7-1.2l0.7-1l0.9-1l0.9-1l0.9-0.9l0.9-0.9l0.9-0.7l1-0.7l1-0.6
		l1-0.6l1-0.5l1.1-0.4l1.1-0.4l1.1-0.3l1.2-0.2l1.2-0.1l1.2-0.1l1.2-0.1l1.3,0.1l1.3,0.1l1.2,0.2l1.2,0.2l1.2,0.4l1.2,0.5l1.1,0.5
		l1,0.7l1.1,0.7l1,0.7l1,0.9l0.9,0.9l0.9,1l0.9,1.1l0.8,1.2l0.7,1.2V28.5H632.3L632.3,28.5z M624,72.7v-1l-0.1-1l-0.1-1l-0.1-0.9
		l-0.1-0.9l-0.2-0.9l-0.2-0.9l-0.2-0.8l-0.3-0.9l-0.3-0.7l-0.3-0.8l-0.4-0.7l-0.4-0.7l-0.4-0.7l-0.4-0.6l-0.5-0.7l-0.5-0.6l-0.5-0.6
		l-0.6-0.5l-0.6-0.5l-0.7-0.3l-0.6-0.4l-0.7-0.4l-0.7-0.3l-0.7-0.3l-0.7-0.2l-0.7-0.2l-0.7-0.2l-0.8-0.1l-0.9-0.1l-0.8-0.1l-0.9-0.1
		l-0.9,0.1l-0.9,0.1l-0.8,0.1l-0.7,0.2l-0.8,0.2l-0.7,0.2l-0.7,0.3l-0.7,0.4l-0.7,0.4l-0.6,0.4l-0.6,0.6l-0.6,0.6l-0.6,0.5l-0.6,0.7
		l-0.5,0.7l-0.5,0.7l-0.5,0.8l-0.4,0.8l-0.4,0.9l-0.4,0.9l-0.4,0.9l-0.3,1l-0.3,1l-0.2,1l-0.3,1l-0.2,1.1l-0.2,1.2l-0.2,1.2
		l-0.1,1.2L594,75v1.3l-0.1,1.3l0.1,1.3V80l0.1,1.2l0.1,1.2l0.2,1.2l0.2,1.2l0.2,1l0.3,1.1l0.2,1l0.3,1l0.3,1l0.4,0.9l0.4,0.9
		l0.4,0.8l0.4,0.8l0.5,0.8l0.5,0.7l0.5,0.7l0.6,0.6l0.6,0.6l0.6,0.5l0.6,0.5l0.7,0.5l0.7,0.4l0.7,0.4l0.7,0.3l0.7,0.2l0.8,0.2
		l0.8,0.1l0.8,0.1l0.8,0.1l0.9,0.1l0.9-0.1l0.7-0.1l0.8-0.1l0.7-0.1l0.7-0.2l0.7-0.2l0.7-0.2l0.7-0.3l0.7-0.4l0.7-0.4l0.6-0.4
		l0.6-0.5l0.6-0.5l0.5-0.6l0.6-0.6l0.5-0.6l0.6-0.6l0.5-0.7l0.4-0.7l0.4-0.7l0.4-0.7l0.4-0.8l0.3-0.8L623,89l0.2-0.9l0.3-0.9
		l0.2-0.9l0.1-0.9l0.1-0.9l0.1-1l0.1-1v-1L624,72.7L624,72.7z M669.7,100.6h1l0.9-0.1l0.9-0.1l0.9-0.2l0.9-0.2l0.8-0.2l0.8-0.3
		l0.7-0.4l0.7-0.4l0.7-0.5l0.7-0.5l0.6-0.6l0.7-0.6l0.6-0.7l0.6-0.7l0.6-0.7l0.5-0.9l0.6-0.8l0.4-0.9l0.5-0.9l0.4-1l0.4-0.9l0.4-1
		l0.3-1l0.2-1l0.2-1.2l0.2-1.1l0.2-1.2l0.1-1.2l0.1-1.2l0.1-1.3v-1.3v-1.3l-0.1-1.3l-0.1-1.2l-0.1-1.2l-0.2-1.2l-0.2-1.1l-0.2-1.2
		l-0.2-1l-0.3-1l-0.3-1l-0.4-1l-0.4-0.9l-0.4-0.9l-0.5-0.9l-0.5-0.9l-0.5-0.8l-0.6-0.7l-0.6-0.7l-0.6-0.7l-0.7-0.6l-0.7-0.6
		l-0.7-0.5l-0.7-0.5l-0.7-0.4l-0.8-0.4l-0.8-0.3l-0.8-0.2l-0.9-0.2l-0.9-0.1l-0.9-0.1l-0.9-0.1h-1h-0.9l-0.9,0.1l-0.9,0.1l-0.9,0.1
		l-0.9,0.2l-0.8,0.2l-0.8,0.3l-0.8,0.4l-0.7,0.4l-0.7,0.4l-0.7,0.5l-0.7,0.6l-0.7,0.6l-0.6,0.6l-0.6,0.7l-0.5,0.7l-0.6,0.8l-0.5,0.9
		L656,63l-0.4,0.9l-0.4,1l-0.4,1l-0.3,1l-0.3,1L654,69l-0.2,1.1l-0.2,1.2l-0.1,1.2l-0.1,1.2l-0.1,1.3l-0.1,1.3v1.3v1.3l0.1,1.3
		l0.1,1.2l0.1,1.2l0.1,1.2l0.2,1.1l0.2,1.2l0.2,1l0.3,1l0.3,1l0.4,0.9l0.4,1l0.4,0.9l0.5,0.9l0.5,0.8l0.6,0.8l0.6,0.8l0.5,0.7
		l0.7,0.7l0.6,0.6l0.7,0.6l0.7,0.6l0.7,0.4l0.7,0.4l0.7,0.4l0.8,0.3l0.9,0.2l0.8,0.2l0.9,0.2l0.9,0.1l0.9,0.1h1V100.6z M669.7,107.8
		l-1.4-0.1l-1.4-0.1l-1.3-0.1l-1.3-0.3l-1.3-0.3l-1.2-0.4l-1.2-0.4l-1.2-0.5l-1.2-0.6l-1.1-0.6l-1-0.7L655,103l-1-0.8l-1-0.9
		l-0.9-0.9l-0.9-1l-0.9-1l-0.8-1.1l-0.8-1.2l-0.7-1.2l-0.6-1.2l-0.6-1.2l-0.5-1.3l-0.5-1.4l-0.4-1.4L645,87l-0.3-1.5l-0.2-1.5
		l-0.2-1.6l-0.1-1.6l-0.1-1.7l-0.1-1.7l0.1-1.7l0.1-1.6l0.1-1.6l0.2-1.6l0.2-1.5l0.3-1.5l0.4-1.5l0.4-1.4l0.5-1.3l0.5-1.3l0.6-1.3
		l0.6-1.2l0.7-1.2l0.8-1.1l0.8-1.1l0.9-1.1l0.9-1l0.9-0.9l1-0.9l1-0.8l1.1-0.7l1-0.7l1.1-0.6l1.2-0.6l1.2-0.5l1.2-0.4l1.2-0.4
		l1.3-0.3l1.3-0.2l1.3-0.2l1.4-0.1h1.4h1.5l1.4,0.1l1.4,0.2l1.3,0.2l1.3,0.3l1.3,0.4l1.2,0.4l1.2,0.5l1.2,0.6l1.2,0.6l1,0.7l1.1,0.7
		l1,0.8l1,0.9l1,0.9l0.9,1l0.9,1l0.8,1.1l0.7,1.2l0.7,1.2l0.6,1.2l0.6,1.3l0.5,1.3L694,65l0.4,1.4l0.4,1.4l0.3,1.5l0.2,1.5l0.2,1.6
		l0.1,1.6l0.1,1.6v1.7V79l-0.1,1.7l-0.1,1.6l-0.2,1.6l-0.2,1.5l-0.3,1.5l-0.4,1.4l-0.4,1.4l-0.5,1.4l-0.6,1.3l-0.5,1.2l-0.7,1.2
		L691,96l-0.8,1.2l-0.8,1.1l-0.9,1l-0.9,1l-1,0.9l-1,0.9l-1,0.8l-1,0.7l-1.1,0.7l-1.2,0.6l-1.1,0.6L679,106l-1.2,0.4l-1.3,0.4
		l-1.3,0.3l-1.4,0.3l-1.3,0.1l-1.4,0.1L669.7,107.8L669.7,107.8z M701.8,91.3l7.7-1.6l0.5,1.2l0.6,1.2l0.6,1.2l0.7,1l0.8,1l0.9,0.9
		l1,0.9l1,0.7l1.1,0.7l1.2,0.6l1.2,0.6l1.3,0.4l1.3,0.4l1.4,0.2l1.4,0.1l1.5,0.1h1.5l1.3-0.2l1.3-0.2l1.2-0.3l1.2-0.4l1-0.5l1-0.6
		l0.9-0.6l0.9-0.7l0.7-0.7l0.4-0.4l0.3-0.4l0.3-0.4l0.2-0.4l0.2-0.4l0.2-0.5l0.2-0.5l0.1-0.5l0.2-1V91v-0.8l-0.2-0.7l-0.3-0.7
		l-0.5-0.8l-0.5-0.7l-0.6-0.7l-0.7-0.6l-0.8-0.6l-0.9-0.6l-1-0.6l-1.1-0.5l-1.2-0.6l-1.3-0.5l-1.4-0.4l-1.5-0.5l-1.6-0.4l-0.9-0.2
		l-0.8-0.2l-0.7-0.2l-0.6-0.1l-2.5-0.7l-2.3-0.7l-2.1-0.7l-1.9-0.8l-0.9-0.4l-0.9-0.4l-0.8-0.4l-0.7-0.4l-0.7-0.4l-0.7-0.4l-0.5-0.4
		l-0.5-0.5l-0.5-0.4l-0.5-0.5l-0.4-0.6l-0.4-0.5l-0.4-0.6l-0.3-0.6l-0.3-0.6L705,70l-0.3-0.7l-0.2-0.7l-0.2-0.7l-0.1-0.7l-0.1-0.7
		l-0.1-0.7l-0.1-0.8v-0.8v-1l0.1-0.9l0.1-0.9l0.1-0.9l0.2-0.9l0.2-0.9l0.3-0.8l0.3-0.8l0.4-0.7l0.4-0.8l0.5-0.7l0.5-0.7l0.6-0.7
		l0.6-0.7l0.6-0.6l0.7-0.6l0.7-0.6l0.7-0.5l0.8-0.5l0.8-0.5l0.9-0.4l0.9-0.4l0.9-0.4l0.9-0.3l1-0.3l1-0.2l1-0.2l1-0.2l1-0.1l1-0.1
		l1.1-0.1h1.2h1l1,0.1l0.9,0.1l1,0.1l0.9,0.1l0.9,0.1l0.9,0.2l0.9,0.2l0.8,0.2l0.8,0.3l0.8,0.3l0.8,0.3l0.7,0.4l0.7,0.4l0.7,0.4
		l0.7,0.4l0.7,0.5l0.6,0.5l0.6,0.6l0.6,0.6l0.6,0.6l0.6,0.6l0.5,0.6l0.5,0.7l0.4,0.7l0.4,0.7l0.4,0.7l0.4,0.7l0.4,0.8l0.3,0.9
		l0.3,0.8l0.3,0.9l-8,1.7l-0.4-1l-0.4-1l-0.5-1l-0.6-0.9l-0.6-0.8l-0.7-0.7l-0.7-0.7l-0.8-0.6l-0.9-0.6l-0.9-0.5l-1-0.4l-1-0.4
		l-1.1-0.2l-1.1-0.2l-1.2-0.1l-1.2-0.1l-1.3,0.1l-1.2,0.1l-1.2,0.2l-1.1,0.2l-1,0.3l-0.9,0.4l-0.9,0.5l-0.8,0.6l-0.7,0.6l-0.6,0.7
		l-0.5,0.8l-0.4,0.8l-0.4,0.9l-0.3,0.9l-0.1,1l-0.1,1l0.1,0.7l0.1,0.7l0.3,0.7l0.4,0.7l0.4,0.7l0.5,0.6l0.6,0.6l0.7,0.6l0.9,0.6
		l0.9,0.5l1,0.5l1.2,0.5l1.2,0.4l1.3,0.4l1.4,0.4l1.5,0.4l1.5,0.4l1.3,0.3l1.2,0.3l1,0.2l2.3,0.6l2.1,0.7l2,0.7l1.8,0.8l0.9,0.4
		l0.8,0.4l0.7,0.4l0.7,0.4l0.7,0.4l0.6,0.4l0.6,0.5l0.5,0.5l0.5,0.5l0.4,0.5l0.4,0.6l0.4,0.5l0.4,0.6l0.4,0.5l0.3,0.6l0.3,0.7
		l0.2,0.6l0.2,0.7l0.2,0.7l0.2,0.7l0.1,0.7l0.1,0.7l0.1,0.7v0.8v1l-0.1,1l-0.1,0.9l-0.1,0.9l-0.2,0.9l-0.2,0.9l-0.3,0.9l-0.4,0.8
		l-0.4,0.8l-0.4,0.8l-0.5,0.7l-0.6,0.7l-0.6,0.7l-0.7,0.7l-0.7,0.7l-0.7,0.6l-0.8,0.6l-0.8,0.6l-0.9,0.5l-0.9,0.5l-0.9,0.5l-0.9,0.4
		l-0.9,0.4l-1,0.3l-1,0.3l-1,0.2l-1.1,0.2L731,107l-1.1,0.2l-1.2,0.1l-1.2,0.1l-1.2,0.1l-1.2-0.1l-1.1-0.1l-1.2-0.1l-1-0.1l-1.1-0.1
		l-1-0.2l-1-0.2l-1-0.2l-1-0.3l-0.9-0.3l-0.9-0.4L714,105l-0.9-0.4l-0.9-0.5l-0.9-0.5l-0.8-0.6l-0.7-0.5l-0.8-0.6l-0.7-0.6l-0.7-0.7
		l-0.7-0.7l-0.6-0.7l-0.6-0.7l-0.5-0.7l-0.5-0.8l-0.5-0.8l-0.4-0.9l-0.4-0.9l-0.4-0.9l-0.4-0.9l-0.3-1L701.8,91.3L701.8,91.3z"/>
</g>
</svg>
