<?xml version="1.0" encoding="utf-8"?>
<!-- Generator: Adobe Illustrator 21.0.0, SVG Export Plug-In . SVG Version: 6.00 Build 0)  -->
<svg version="1.1" id="Capa_1" xmlns="http://www.w3.org/2000/svg" xmlns:xlink="http://www.w3.org/1999/xlink" x="0px" y="0px"
	 viewBox="0 0 803 210" style="enable-background:new 0 0 803 210;" xml:space="preserve">
<style type="text/css">
	.st0{fill:#FFFFFF;}
</style>
<g>
	<path class="st0" d="M212.2,127.3l-0.7,0.4l-0.6,0.5l-0.3,0.2l-0.2,0.2l-0.2,0.2l-0.2,0.3l-0.2,0.3l-0.1,0.3l-0.1,0.3l-0.1,0.3
		l-0.1,0.3l0,0.3l0,0.3v0.3v0.3l0,0.3l0,0.3l0.1,0.3l0.1,0.3l0.1,0.3l0.2,0.3l0.1,0.3l0.2,0.2l0.2,0.2l0.2,0.2l0.3,0.2l0.6,0.4
		l0.8,0.4l0.8,0.3l1,0.3l1.1,0.2l1.2,0.2l1.4,0.1l1.5,0.1l1.6,0.1l1.7,0l1.6,0l1.4-0.1l1.4-0.1l1.2-0.1l1.1-0.2l1-0.2l0.9-0.3
		l0.7-0.2l0.6-0.3l0.5-0.4l0.5-0.4l0.4-0.4l0.1-0.3l0.1-0.2l0.1-0.3l0.1-0.3l0.1-0.6l0-0.7l0-0.4l0-0.4l-0.1-0.4l-0.1-0.3l-0.2-0.3
		l-0.2-0.3l-0.3-0.3l-0.4-0.2l-0.4-0.2l-0.5-0.2l-0.5-0.2l-0.6-0.2l-0.6-0.2l-0.7-0.1l-0.8-0.1l-0.8,0L212.2,127.3L212.2,127.3z
		 M221.6,89l-0.8,0l-0.8,0.1l-0.7,0.1l-0.7,0.2l-0.7,0.3l-0.6,0.3l-0.6,0.4l-0.5,0.5l-0.5,0.5l-0.4,0.6l-0.3,0.6l-0.3,0.7l-0.2,0.7
		l-0.1,0.7l-0.1,0.8l0,0.8l0,0.8l0.1,0.8l0.1,0.8l0.2,0.7l0.3,0.7l0.3,0.6l0.4,0.6l0.4,0.5l0.5,0.4l0.6,0.4l0.6,0.3l0.6,0.3l0.7,0.2
		l0.7,0.2l0.8,0.1h0.8h0.9l0.8-0.1l0.8-0.2l0.7-0.2l0.6-0.3l0.6-0.3l0.6-0.4l0.5-0.4l0.5-0.5l0.4-0.6l0.3-0.6l0.3-0.7l0.2-0.7
		l0.1-0.8l0.1-0.8l0.1-0.8l-0.1-0.9l-0.1-0.8l-0.1-0.7l-0.2-0.7l-0.3-0.7l-0.3-0.6l-0.4-0.6l-0.5-0.5l-0.5-0.5l-0.6-0.4l-0.6-0.3
		l-0.6-0.3l-0.7-0.2l-0.7-0.1l-0.8-0.1L221.6,89L221.6,89z M208.2,107.9l-0.9-0.5l-0.8-0.5l-0.7-0.5l-0.7-0.6l-0.6-0.6l-0.6-0.6
		l-0.5-0.7l-0.5-0.7l-0.4-0.7l-0.3-0.7l-0.3-0.8l-0.2-0.8l-0.2-0.8l-0.1-0.8l-0.1-0.8v-0.9V96l0-0.8l0.1-0.8l0.1-0.7l0.2-0.8
		l0.2-0.7l0.2-0.7l0.3-0.7l0.4-0.7l0.4-0.6l0.5-0.6l0.5-0.6l0.5-0.6l0.6-0.6l0.6-0.5l0.7-0.5l0.7-0.5l0.7-0.4l0.8-0.4l0.8-0.4
		l0.8-0.3l0.8-0.4l0.9-0.3l0.9-0.3l0.9-0.2l0.9-0.2l1-0.2l1-0.1l1.1-0.1l1-0.1l1.1-0.1h1.1h1.2l1.2,0.1l1.2,0.1l1.2,0.2l1.2,0.2
		l1.2,0.3l1.2,0.4l1.1,0.4l0.2-1.2l0.2-1.1l0.3-1l0.3-1l0.2-0.4l0.2-0.4l0.2-0.4l0.2-0.4l0.3-0.4l0.3-0.3l0.3-0.3l0.3-0.3l0.3-0.3
		l0.4-0.3l0.3-0.2l0.4-0.2l0.4-0.2l0.4-0.2l0.5-0.2l0.5-0.1l1-0.3l1.1-0.1l1.2-0.1l1.2,0l0.5,0h0.7l1,0.1l1.1,0l0.7,0.1l0.5,0
		l-0.3,9.5h-0.2l-0.3,0l-0.9,0l-0.7,0h-0.6h-0.4h-0.7l-0.6,0l-0.6,0l-0.5,0l-0.5,0.1l-0.4,0.1l-0.4,0.1l-0.3,0.2l-0.3,0.2l-0.3,0.2
		l-0.3,0.3l-0.2,0.3l-0.2,0.3l-0.2,0.4l-0.1,0.4l-0.1,0.4l0.6,0.6l0.5,0.6l0.5,0.6l0.4,0.6l0.4,0.6l0.4,0.6l0.4,0.6l0.3,0.6L241,92
		l0.2,0.7l0.2,0.6l0.1,0.7l0.1,0.7l0.1,0.7l0,0.7l0,0.7l0,0.8l0,0.8l-0.1,0.8l-0.1,0.8l-0.2,0.7l-0.2,0.7l-0.3,0.7l-0.3,0.7
		l-0.3,0.6l-0.4,0.6l-0.4,0.6l-0.4,0.6l-0.5,0.6l-0.5,0.5l-0.6,0.5l-0.6,0.5l-0.7,0.4l-0.7,0.4l-0.7,0.4l-0.7,0.4l-0.8,0.3l-0.8,0.3
		l-0.8,0.3l-0.9,0.3l-0.9,0.2l-0.9,0.2l-1,0.2l-1,0.2l-1.1,0.1l-1,0l-1.1,0.1l-1.1,0l-1,0h-1l-1-0.1l-0.9-0.1l-0.8-0.1l-0.8-0.1
		l-0.8-0.2l-0.7-0.2l-0.7,0.3l-0.6,0.3l-0.5,0.4l-0.4,0.4l-0.3,0.4l-0.2,0.4l-0.1,0.5l0,0.5v0.4l0,0.3l0.1,0.3l0.1,0.3l0.2,0.3
		l0.2,0.2l0.2,0.2l0.3,0.2l0.3,0.2l0.3,0.1l0.3,0.2l0.4,0.1l0.4,0.2l0.5,0l0.5,0.1l0.6,0.1l14.1,0.6l0.9,0.1l0.9,0.1l0.9,0.1
		l0.8,0.2l0.8,0.1l0.8,0.2l0.8,0.2l0.7,0.2l0.7,0.2l0.7,0.3l0.7,0.3l0.6,0.3l0.6,0.3l0.6,0.3l0.6,0.4l0.5,0.4l0.5,0.4l0.5,0.4
		l0.4,0.5l0.4,0.5l0.4,0.5l0.3,0.5l0.3,0.5l0.3,0.5l0.2,0.6l0.2,0.6l0.2,0.6l0.1,0.6l0.1,0.6l0.1,0.7l0,0.6v0.7v0.9l-0.1,0.8
		l-0.1,0.8l-0.2,0.8l-0.2,0.7l-0.3,0.7l-0.3,0.7l-0.4,0.7l-0.4,0.6l-0.5,0.6l-0.5,0.6l-0.6,0.5l-0.6,0.6l-0.7,0.5l-0.7,0.5l-0.8,0.5
		L240,142l-0.9,0.4l-0.9,0.4l-0.9,0.3l-1,0.3l-1,0.3l-1.1,0.2l-1.1,0.2l-1.1,0.2l-1.2,0.2l-1.2,0.2l-1.2,0.1l-1.3,0.1l-1.3,0.1
		l-1.4,0l-1.4,0.1l-1.6-0.1h-1.6l-1.5,0l-1.4-0.1l-1.4-0.1l-1.3-0.2l-1.3-0.1l-1.2-0.2l-1.2-0.2l-1.1-0.2l-1.1-0.2l-1-0.2l-1-0.3
		l-0.9-0.3l-0.9-0.3l-0.8-0.4l-0.8-0.4l-0.7-0.4l-0.6-0.4l-0.6-0.4l-0.5-0.5l-0.5-0.5l-0.4-0.5l-0.4-0.5l-0.3-0.6l-0.3-0.6l-0.2-0.6
		l-0.2-0.6l-0.1-0.7l-0.1-0.7l0-0.7l0-0.7l0-0.8l0.1-0.7l0.1-0.7l0.2-0.7l0.2-0.7l0.3-0.6l0.3-0.6l0.4-0.6l0.5-0.6l0.5-0.5l0.6-0.5
		l0.6-0.4l0.7-0.4l0.7-0.3l0.7-0.3l0.8-0.3l-0.5-0.3l-0.5-0.3l-0.4-0.4l-0.4-0.3l-0.4-0.4l-0.4-0.4l-0.3-0.4l-0.3-0.4l-0.2-0.4
		l-0.2-0.4l-0.2-0.5l-0.1-0.5l-0.1-0.5l0-0.5l0-0.5l0-0.5l0-0.8l0.1-0.8l0.1-0.8l0.2-0.7l0.3-0.7l0.3-0.7l0.4-0.6l0.4-0.6l0.5-0.5
		l0.6-0.5l0.6-0.5l0.7-0.5l0.8-0.4l0.9-0.4l0.9-0.4L208.2,107.9L208.2,107.9z M251.7,128.8V66.5h13.3v22l0.6-0.8l0.6-0.8l0.6-0.7
		l0.7-0.7l0.7-0.6l0.7-0.6l0.7-0.5l0.8-0.5l0.8-0.4l0.9-0.3l0.8-0.3l0.9-0.2l0.9-0.2l1-0.1l1-0.1l1,0l0.9,0l0.9,0l0.9,0.1l0.9,0.1
		l0.8,0.1l0.8,0.2l0.8,0.2l0.7,0.2l0.7,0.3l0.7,0.3l0.6,0.3l0.6,0.4l0.6,0.4l0.5,0.4l0.5,0.5l0.5,0.5l0.4,0.5l0.4,0.6l0.4,0.6
		l0.3,0.6l0.3,0.7l0.3,0.7l0.3,0.8l0.2,0.8l0.2,0.8l0.2,0.9l0.1,0.9l0.1,0.9l0.1,1l0,1l0.1,1.1l0,1.1v29.9h-13.4v-29l0-1l0-1
		l-0.1-0.9l-0.1-0.8l-0.2-0.8l-0.2-0.7l-0.3-0.6l-0.3-0.6l-0.4-0.5l-0.5-0.4l-0.5-0.4l-0.6-0.3l-0.6-0.2l-0.7-0.1l-0.7-0.1l-0.8,0
		l-0.9,0l-0.9,0.1l-0.4,0.1l-0.4,0.1l-0.4,0.1l-0.4,0.1l-0.3,0.2l-0.4,0.2l-0.3,0.2l-0.3,0.2l-0.6,0.6l-0.6,0.7l-0.5,0.7l-0.5,0.8
		l-0.4,0.9l-0.3,0.9l-0.2,1l-0.2,1l-0.1,1.1l0,1.2v27.2H251.7L251.7,128.8z M341.3,89.6l0.7-1l0.7-0.9l0.7-0.8l0.8-0.8l0.8-0.7
		l0.8-0.7l0.9-0.6l0.8-0.5l0.9-0.4l0.9-0.4l0.9-0.3l1-0.3l1-0.2l1.1-0.1l1.1-0.1l1.1,0h0.8l0.8,0l0.8,0.1l0.8,0.1l0.7,0.1l0.7,0.1
		l0.7,0.2l0.7,0.2l0.6,0.2l0.6,0.3l0.6,0.3l0.6,0.3l0.5,0.4l0.5,0.4l0.5,0.4l0.4,0.5l0.4,0.5l0.4,0.5l0.4,0.6l0.3,0.6l0.3,0.6
		l0.3,0.7l0.3,0.6l0.2,0.7l0.2,0.7l0.1,0.7l0.1,0.8l0.1,0.8l0.1,0.8l0,0.9l0,0.9l0.1,0.9v31.8h-13.3V99.2v-0.9l-0.1-0.8l-0.1-0.7
		L356,96l-0.2-0.7l-0.2-0.6l-0.3-0.5l-0.4-0.5l-0.4-0.4l-0.4-0.4l-0.4-0.3l-0.5-0.3l-0.6-0.2l-0.6-0.2l-0.6-0.1l-0.7,0l-0.8,0
		l-0.8,0.1l-0.8,0.2l-0.7,0.3l-0.7,0.4l-0.6,0.5l-0.6,0.5l-0.5,0.7l-0.5,0.7l-0.4,0.7l-0.3,0.9l-0.3,0.9l-0.2,0.9l-0.2,1l-0.1,1.1
		l0,1.1v27h-13.2V99.3v-0.9l-0.1-0.9l-0.1-0.8l-0.1-0.7l-0.2-0.7l-0.2-0.6l-0.3-0.6l-0.3-0.5l-0.3-0.5l-0.4-0.4l-0.5-0.3l-0.5-0.2
		l-0.6-0.2l-0.6-0.2l-0.6-0.1l-0.7,0l-0.8,0l-0.8,0.1l-0.7,0.2l-0.7,0.3l-0.6,0.4l-0.6,0.4l-0.6,0.5l-0.5,0.6l-0.5,0.6l-0.4,0.7
		l-0.4,0.8l-0.3,0.8l-0.2,0.8l-0.1,0.9l-0.1,1l0,1v27.8h-13.2V82.6h12.3v7.1l0.6-1l0.6-0.9l0.6-0.8l0.7-0.8l0.7-0.7l0.8-0.6l0.8-0.6
		l0.8-0.5l0.9-0.5l0.8-0.4l0.9-0.3l0.9-0.3l1-0.2l1-0.1l1-0.1l1,0l1.2,0l1.1,0.1l1.1,0.1l1,0.2l1,0.3l0.9,0.3l0.8,0.4l0.8,0.5
		l0.8,0.5l0.7,0.6l0.7,0.7l0.6,0.7l0.6,0.8l0.5,0.8l0.5,0.9L341.3,89.6L341.3,89.6z"/>
	<path class="st0" d="M414.7,98.7l-0.2-1.3l-0.3-1.2l-0.3-1.2l-0.4-1.1l-0.5-1l-0.6-1l-0.6-0.9l-0.7-0.8l-0.4-0.4l-0.3-0.3l-0.4-0.3
		l-0.4-0.3l-0.4-0.2l-0.4-0.3l-0.4-0.2l-0.4-0.2l-0.4-0.2l-0.4-0.1l-0.5-0.1l-0.5-0.1l-0.5-0.1l-0.5,0l-0.5-0.1h-0.5h-0.7l-0.7,0.1
		l-0.6,0.1l-0.6,0.1l-0.6,0.2l-0.6,0.2l-0.6,0.2l-0.5,0.3l-0.6,0.3l-0.5,0.3l-0.5,0.4l-0.5,0.4l-0.5,0.5l-0.5,0.5l-0.4,0.6l-0.4,0.6
		l-0.4,0.6l-0.4,0.7l-0.3,0.7l-0.3,0.7l-0.3,0.8l-0.3,0.8l-0.3,0.8l-0.2,0.8l-0.2,0.8l-0.2,0.9l-0.1,0.9l-0.1,0.9l-0.1,1l-0.1,1l0,1
		v1v1l0,1l0.1,1l0.1,1l0.1,0.9l0.1,0.9l0.1,0.9l0.2,0.8l0.2,0.8l0.2,0.8l0.3,0.7l0.3,0.8l0.3,0.7l0.3,0.7l0.4,0.7l0.4,0.6l0.4,0.6
		l0.4,0.6l0.5,0.5l0.4,0.5l0.5,0.5l0.5,0.4l0.5,0.3l0.5,0.3l0.6,0.3l0.6,0.3l0.6,0.2l0.6,0.2l0.6,0.1l0.6,0.1l0.7,0.1l0.7,0.1
		l1.1-0.1l1-0.2l0.5-0.1l0.5-0.1l0.4-0.2l0.5-0.1l0.4-0.2l0.4-0.2l0.4-0.2l0.4-0.2l0.4-0.3l0.4-0.3l0.4-0.3l0.4-0.3l0.7-0.8l0.6-0.9
		l0.6-0.9l0.5-1l0.5-1.1l0.4-1.2l0.3-1.2l0.3-1.3l6.2,1.2l-0.2,1l-0.2,0.9l-0.2,0.9l-0.3,0.8l-0.3,0.8l-0.3,0.8l-0.3,0.8l-0.3,0.7
		l-0.4,0.7l-0.4,0.7l-0.4,0.7l-0.5,0.6l-0.5,0.6l-0.5,0.6l-0.5,0.6l-0.6,0.5l-0.6,0.5l-0.6,0.5l-0.6,0.4l-0.6,0.4L412,128l-0.7,0.3
		l-0.7,0.3l-0.7,0.3l-0.7,0.2l-0.7,0.2l-0.8,0.1l-0.8,0.2l-0.8,0.1l-0.8,0l-0.9,0.1l-0.9,0l-1.1,0l-1.1-0.1l-1-0.1l-1-0.2l-1-0.2
		l-0.9-0.2l-0.9-0.3l-0.9-0.4l-0.9-0.4l-0.8-0.5l-0.8-0.5l-0.8-0.6l-0.7-0.6l-0.7-0.7l-0.7-0.8l-0.7-0.8l-0.6-0.8l-0.6-0.9l-0.6-0.9
		l-0.5-0.9l-0.4-1l-0.4-1l-0.4-1.1l-0.4-1.1l-0.3-1.1l-0.3-1.1l-0.2-1.2l-0.2-1.2l-0.1-1.2l-0.1-1.3l0-1.3l0-1.4l0-1.4l0-1.3
		l0.1-1.3l0.1-1.3l0.2-1.2l0.2-1.2l0.3-1.1l0.3-1.1l0.4-1.1l0.4-1.1l0.5-1l0.5-1l0.5-0.9l0.6-0.9l0.6-0.9l0.7-0.8l0.7-0.8l0.7-0.7
		l0.8-0.7l0.8-0.6l0.8-0.6l0.9-0.5l0.9-0.5l0.9-0.4l1-0.4l1-0.3l1-0.3l1-0.2l1.1-0.1l1.1-0.1l1.1-0.1h1.1h0.8l0.8,0l0.8,0.1l0.8,0.1
		l0.7,0.1l0.7,0.2l0.7,0.2l0.7,0.2l0.7,0.3L412,83l0.6,0.4l0.6,0.4l0.6,0.4l0.6,0.5l0.5,0.5l0.6,0.5l0.5,0.6l0.5,0.6l0.5,0.6
		l0.4,0.6l0.4,0.6l0.4,0.7l0.4,0.7l0.4,0.7l0.3,0.8l0.3,0.8l0.2,0.8l0.3,0.8l0.2,0.9l0.2,0.9l0.1,0.9l0.2,0.9L414.7,98.7L414.7,98.7
		z M447.6,124.2h0.7l0.7,0l0.7-0.1l0.7-0.2l0.7-0.2l0.6-0.2l0.6-0.2l0.6-0.3l0.6-0.3l0.6-0.4l0.5-0.4l0.5-0.4l0.5-0.5l0.5-0.5
		l0.4-0.6l0.5-0.6l0.4-0.7l0.4-0.6l0.4-0.7l0.3-0.7l0.3-0.8l0.3-0.7l0.2-0.8l0.2-0.8l0.2-0.8l0.1-0.9l0.2-0.9l0.1-0.9l0.1-1l0.1-1
		v-1l0-1.1l0-1.1v-1l-0.1-1l-0.1-1l-0.1-1l-0.2-0.9l-0.1-0.9l-0.2-0.8l-0.2-0.8l-0.3-0.8l-0.3-0.8l-0.3-0.7l-0.4-0.7l-0.3-0.7
		l-0.4-0.7l-0.4-0.6l-0.5-0.6l-0.5-0.5l-0.5-0.5l-0.5-0.5l-0.5-0.4l-0.6-0.4l-0.5-0.4l-0.6-0.3l-0.6-0.3l-0.6-0.2l-0.6-0.2l-0.7-0.2
		l-0.7-0.1l-0.7-0.1l-0.7-0.1h-0.7h-0.8l-0.7,0.1l-0.7,0.1l-0.7,0.1l-0.7,0.2l-0.6,0.2l-0.6,0.2l-0.6,0.3l-0.6,0.3l-0.5,0.3
		l-0.6,0.4l-0.5,0.4l-0.5,0.5l-0.5,0.5l-0.5,0.6l-0.4,0.6l-0.4,0.6l-0.4,0.7l-0.3,0.7l-0.3,0.7l-0.3,0.8l-0.2,0.8l-0.3,0.8l-0.2,0.8
		l-0.2,0.9l-0.1,0.9l-0.1,0.9l-0.2,0.9l-0.1,1l0,1l0,1v1.1v1.1l0,1l0,1l0.1,1l0.2,1l0.1,0.9l0.2,0.9l0.2,0.8l0.2,0.8l0.2,0.8
		l0.3,0.7l0.3,0.8l0.3,0.7l0.4,0.7l0.4,0.6l0.4,0.6l0.4,0.6l0.5,0.5l0.5,0.5l0.5,0.5l0.5,0.4l0.6,0.4l0.5,0.3l0.6,0.3l0.6,0.3
		l0.6,0.2l0.6,0.2l0.7,0.2l0.7,0.2l0.7,0.1l0.7,0H447.6L447.6,124.2z M447.6,130l-1.1,0l-1.1-0.1l-1.1-0.1l-1-0.2l-1-0.2l-1-0.3
		l-1-0.3l-0.9-0.4l-0.9-0.5l-0.9-0.5l-0.9-0.5l-0.8-0.6l-0.8-0.6l-0.8-0.7l-0.7-0.7l-0.7-0.8l-0.7-0.8l-0.6-0.9l-0.6-0.9l-0.5-1
		l-0.5-1l-0.4-1l-0.4-1.1l-0.3-1.1l-0.3-1.1l-0.3-1.1l-0.2-1.2l-0.2-1.2l-0.1-1.3l-0.1-1.3l0-1.3v-1.4v-1.4l0-1.3l0.1-1.3l0.1-1.3
		l0.2-1.2l0.2-1.2l0.3-1.2l0.3-1.1l0.3-1.1l0.4-1l0.4-1l0.5-1l0.5-1l0.6-0.9l0.6-0.9l0.7-0.9l0.7-0.8l0.7-0.7l0.8-0.7l0.8-0.6
		l0.8-0.6l0.9-0.5l0.9-0.5l0.9-0.4l0.9-0.4l1-0.3l1-0.3l1-0.2l1-0.1l1.1-0.1l1.1-0.1h1.1h1.2l1.1,0.1l1.1,0.1l1.1,0.1l1,0.2l1,0.3
		l1,0.3l1,0.4l0.9,0.4l0.9,0.5l0.9,0.5l0.8,0.6l0.8,0.6l0.8,0.7l0.7,0.7l0.7,0.8l0.7,0.8l0.6,0.9l0.6,0.9l0.5,0.9l0.5,1l0.4,1
		l0.4,1.1l0.4,1.1l0.3,1.1l0.3,1.1l0.2,1.2l0.2,1.2l0.2,1.3l0.1,1.3l0.1,1.3l0,1.4l0,1.4l-0.1,1.3l-0.1,1.3l-0.2,1.3l-0.2,1.2
		l-0.2,1.2l-0.3,1.1l-0.3,1.1l-0.3,1.1l-0.4,1.1l-0.5,1l-0.5,1l-0.6,1l-0.6,0.9l-0.6,0.9l-0.7,0.8l-0.7,0.8l-0.7,0.7l-0.8,0.7
		l-0.8,0.6l-0.8,0.6l-0.9,0.5l-0.9,0.5l-0.9,0.5l-0.9,0.4l-1,0.3l-1,0.3l-1,0.2l-1.1,0.2l-1.1,0.1l-1.1,0.1L447.6,130L447.6,130z
		 M477.6,128.7V82.5h6.3v8.5l0.7-1.2l0.7-1.1l0.8-1.1l0.8-0.9l0.8-0.9l0.8-0.8l0.9-0.7l0.9-0.6l0.9-0.6l0.9-0.5l1-0.4l1-0.3l1.1-0.2
		l1.1-0.2l1.1-0.1l1.2,0h0.9l0.9,0l0.9,0.1l0.8,0.1l0.8,0.1l0.7,0.2l0.7,0.2l0.7,0.2l0.7,0.3l0.6,0.3l0.6,0.3l0.6,0.4l0.6,0.4
		l0.5,0.5l0.5,0.5l0.5,0.5l0.4,0.6l0.4,0.6l0.4,0.7l0.4,0.7l0.3,0.7l0.3,0.7l0.3,0.8l0.2,0.8l0.2,0.9l0.2,0.9l0.2,0.9l0.1,1l0.1,1
		l0.1,1v1.1l0,1.1v29.2h-6.7V98.9l0-1.4l-0.1-1.3l-0.2-1.2l-0.3-1.1l-0.1-0.5l-0.2-0.5l-0.2-0.5l-0.2-0.5l-0.2-0.4l-0.2-0.4
		l-0.3-0.4l-0.3-0.4l-0.3-0.3l-0.3-0.4l-0.3-0.3l-0.4-0.3l-0.3-0.3l-0.4-0.2l-0.4-0.2l-0.4-0.2l-0.4-0.2l-0.4-0.1l-0.5-0.1l-0.5-0.1
		l-0.5-0.1l-0.5,0l-0.5-0.1h-0.5H497l-0.7,0.1l-0.6,0.1l-0.7,0.1l-0.6,0.1l-0.6,0.2l-0.6,0.2l-0.6,0.2l-0.6,0.3l-0.5,0.3l-0.6,0.3
		l-0.5,0.4l-0.5,0.4l-0.5,0.5l-0.5,0.5l-0.5,0.5l-0.4,0.6l-0.4,0.6l-0.4,0.6l-0.4,0.6l-0.3,0.7l-0.3,0.6l-0.3,0.7l-0.2,0.7l-0.2,0.7
		l-0.1,0.7l-0.2,0.8l-0.1,0.8l-0.1,0.8l0,0.8l0,0.9v0.8v25.5H477.6L477.6,128.7z M528,111.6v-24h-8.1v-5h8.1v-11l6.9-0.7v11.7h11v5
		h-11v24.1l0.1,1.9l0.1,1.7l0.1,1.5l0.2,1.3l0.2,1.2l0.3,1l0.1,0.4l0.1,0.4l0.2,0.3l0.2,0.3l0.2,0.2l0.2,0.3l0.2,0.2l0.3,0.2
		l0.3,0.2l0.3,0.2l0.3,0.2l0.4,0.1l0.8,0.2l0.9,0.2l1,0.1l1.1,0.1h0.7l0.7-0.1l0.6-0.1l0.6,0l0.6-0.1l0.5-0.1l0.5-0.1l0.5-0.2v5.7
		l-0.7,0.2l-0.7,0.1l-0.7,0.1l-0.7,0.1l-0.7,0.1l-0.7,0.1h-0.7l-0.7,0l-1,0l-1-0.1l-1-0.1l-0.9-0.1l-0.9-0.2l-0.8-0.2l-0.8-0.2
		l-0.7-0.3l-0.7-0.3l-0.7-0.4l-0.6-0.4l-0.6-0.5l-0.6-0.5l-0.6-0.6l-0.5-0.6l-0.5-0.7l-0.2-0.4l-0.2-0.4l-0.2-0.4l-0.2-0.4l-0.3-1
		l-0.2-1.2l-0.1-0.7l-0.1-0.8l0-0.9l-0.1-1.1l0-1.2v-1.3l0-1.5V111.6L528,111.6z M590.9,116.3l-0.3,0.8l-0.3,0.8l-0.3,0.7l-0.4,0.8
		l-0.4,0.7l-0.4,0.7l-0.4,0.7l-0.5,0.6l-0.5,0.6l-0.5,0.6l-0.5,0.6l-0.5,0.5l-0.6,0.5l-0.6,0.5L584,126l-0.6,0.4l-0.7,0.4l-0.6,0.4
		l-0.7,0.3l-0.7,0.3l-0.7,0.3l-0.7,0.3l-0.7,0.2l-0.8,0.2l-0.8,0.2l-0.8,0.2l-0.8,0.2l-0.8,0.1l-0.8,0.1l-0.9,0l-0.8,0.1l-0.9,0
		l-1.1,0l-1.1-0.1l-1.1-0.1l-1.1-0.2l-1-0.2l-1-0.2l-1-0.3l-0.9-0.4l-0.9-0.4l-0.9-0.5l-0.8-0.5l-0.8-0.6l-0.8-0.6l-0.8-0.7
		l-0.7-0.7l-0.7-0.8l-0.7-0.9l-0.6-0.9l-0.6-0.9l-0.5-1l-0.5-1l-0.4-1l-0.4-1l-0.3-1.1l-0.3-1.1l-0.3-1.2l-0.2-1.2l-0.2-1.2
		l-0.2-1.3l-0.1-1.3l-0.1-1.3l0-1.4l0-1.3l0.1-1.3l0.1-1.3l0.2-1.3l0.2-1.2l0.2-1.2l0.3-1.1l0.3-1.1l0.4-1.1l0.4-1.1l0.4-1l0.5-1
		l0.5-0.9l0.6-0.9l0.6-0.9l0.7-0.8l0.7-0.8l0.8-0.8l0.8-0.7l0.8-0.6l0.8-0.6l0.9-0.5l0.9-0.5l0.9-0.4l0.9-0.4l1-0.3l1-0.3l1-0.2
		l1-0.1l1.1-0.1l1.1-0.1h1.1h1.2l1.1,0.1l1.1,0.1l1.1,0.2l1,0.2l1,0.2l1,0.3l0.9,0.4l0.9,0.4l0.9,0.5l0.8,0.5l0.8,0.5l0.8,0.6
		l0.8,0.7l0.7,0.7l0.7,0.8l0.7,0.8l0.6,0.8l0.6,0.9l0.5,0.9l0.5,1l0.4,1l0.4,1l0.3,1.1l0.3,1.1l0.2,1.1l0.2,1.2l0.2,1.2l0.1,1.2
		l0.1,1.3l0.1,1.3v1.3v1h-33.6v0.2v1l0,1l0.1,1l0.1,0.9l0.1,0.9l0.1,0.9l0.2,0.8l0.2,0.8l0.2,0.8l0.2,0.8l0.3,0.7l0.3,0.7l0.4,0.7
		l0.3,0.6l0.4,0.6l0.4,0.6l0.5,0.6l0.5,0.5l0.5,0.5l0.5,0.4l0.5,0.4l0.6,0.4l0.6,0.3l0.6,0.3l0.6,0.2l0.6,0.2l0.7,0.2l0.7,0.2
		l0.7,0.1l0.7,0.1l0.8,0l0.8,0.1l1.1-0.1l1-0.1l1-0.2l1-0.3l0.9-0.3l0.9-0.4l0.9-0.5l0.8-0.5l0.8-0.6l0.7-0.7l0.7-0.7l0.7-0.8
		l0.6-0.9l0.6-0.9l0.5-1l0.5-1.1L590.9,116.3L590.9,116.3z M558,101.1h26.1l0-0.8l0-0.8l-0.1-0.8l-0.1-0.7l-0.2-0.7l-0.1-0.7
		l-0.2-0.7l-0.2-0.6l-0.2-0.6l-0.3-0.6l-0.2-0.6l-0.3-0.5l-0.3-0.5l-0.4-0.5l-0.3-0.5l-0.4-0.5l-0.4-0.4l-0.4-0.4l-0.5-0.4l-0.4-0.3
		l-0.5-0.3l-0.5-0.3l-0.5-0.3l-0.5-0.2l-0.6-0.2l-0.6-0.2l-0.6-0.2l-0.6-0.1l-0.6-0.1l-0.6-0.1l-0.7-0.1h-0.7h-0.7l-0.7,0.1
		l-0.6,0.1l-0.6,0.1l-0.6,0.1l-0.6,0.1l-0.6,0.2l-0.6,0.2l-0.5,0.2l-0.5,0.3l-0.5,0.3l-0.5,0.3l-0.5,0.3l-0.5,0.4l-0.4,0.4l-0.4,0.4
		l-0.4,0.4l-0.4,0.5l-0.4,0.5l-0.3,0.5l-0.3,0.5l-0.3,0.6l-0.3,0.6l-0.3,0.6l-0.2,0.7l-0.2,0.7l-0.2,0.7l-0.2,0.7l-0.2,0.8l-0.2,0.8
		l-0.1,0.8L558,101.1L558,101.1z M600.7,128.7V82.5h6.3v8.5l0.7-1.2l0.7-1.1l0.8-1.1l0.8-0.9l0.8-0.9l0.8-0.8l0.9-0.7l0.9-0.6
		l0.9-0.6l1-0.5l1-0.4l1.1-0.3l1.1-0.2l1.1-0.2l1.1-0.1l1.2,0h0.9l0.9,0l0.8,0.1l0.8,0.1l0.8,0.1L627,82l0.7,0.2l0.7,0.2l0.7,0.3
		l0.6,0.3l0.6,0.3l0.6,0.4l0.6,0.4l0.5,0.5l0.5,0.5l0.5,0.5l0.4,0.6l0.4,0.6l0.4,0.7l0.4,0.7l0.3,0.7l0.3,0.7l0.3,0.8l0.2,0.8
		l0.2,0.9l0.2,0.9l0.2,0.9l0.1,1l0.1,1l0,1l0,1.1v1.1v29.2h-6.6V98.9l0-1.4l-0.2-1.3l-0.2-1.2l-0.2-1.1l-0.1-0.5l-0.2-0.5l-0.2-0.5
		l-0.2-0.5l-0.2-0.4l-0.2-0.4l-0.3-0.4l-0.3-0.4l-0.3-0.3l-0.3-0.4l-0.4-0.3l-0.3-0.3l-0.4-0.3l-0.4-0.2l-0.4-0.2l-0.4-0.2l-0.4-0.2
		l-0.5-0.1l-0.5-0.1l-0.5-0.1l-0.5-0.1l-0.5,0l-0.5-0.1h-0.6H620l-0.7,0.1l-0.7,0.1l-0.6,0.1l-0.6,0.1l-0.6,0.2l-0.6,0.2l-0.6,0.2
		l-0.6,0.3l-0.6,0.3l-0.5,0.3l-0.5,0.4l-0.5,0.4l-0.5,0.5l-0.5,0.5l-0.5,0.5l-0.5,0.6l-0.4,0.6l-0.4,0.6l-0.3,0.6l-0.3,0.7l-0.3,0.6
		l-0.3,0.7l-0.2,0.7l-0.2,0.7l-0.2,0.7l-0.1,0.8l-0.1,0.8l-0.1,0.8l-0.1,0.8v0.9l-0.1,0.8v25.5H600.7L600.7,128.7z M649.3,128.7
		V82.5h6.9v46.2H649.3L649.3,128.7z M649.3,73.2v-6.8h6.9v6.8H649.3L649.3,73.2z M704,66.4v62.3h-6.2v-9.2l-0.6,1.2l-0.6,1.1l-0.7,1
		l-0.7,1l-0.8,0.9l-0.8,0.8l-0.9,0.8l-0.9,0.7l-0.9,0.6l-0.9,0.5l-1,0.4l-1,0.4l-1.1,0.2l-1.1,0.2l-1.1,0.1l-1.1,0l-1,0l-0.9-0.1
		l-0.9-0.2l-0.9-0.2l-0.9-0.2l-0.8-0.3l-0.8-0.3l-0.8-0.4l-0.8-0.4l-0.7-0.5l-0.7-0.5l-0.7-0.6l-0.7-0.7l-0.7-0.7l-0.7-0.7l-0.6-0.8
		l-0.6-0.8l-0.6-0.9l-0.5-0.9l-0.5-0.9l-0.4-1l-0.4-1l-0.3-1l-0.3-1.1l-0.3-1.1l-0.2-1.1l-0.2-1.1l-0.1-1.2l-0.2-1.2l-0.1-1.3
		l-0.1-1.3l0-1.3l0-1.4l0.1-1.3l0.1-1.3l0.2-1.2l0.2-1.2l0.2-1.2l0.2-1.2l0.3-1.1l0.3-1.1l0.4-1l0.4-1l0.4-1l0.5-1l0.5-0.9l0.6-0.9
		l0.6-0.8l0.7-0.8l0.7-0.8l0.7-0.7l0.7-0.7l0.7-0.6l0.8-0.6l0.8-0.5l0.8-0.4l0.8-0.4l0.9-0.3l0.9-0.3l0.9-0.2l0.9-0.2l0.9-0.1l1-0.1
		l1-0.1l1,0.1l1,0.1l1,0.2l1,0.2l0.9,0.3l0.9,0.4l0.9,0.4l0.8,0.5l0.9,0.5l0.8,0.6l0.8,0.7l0.7,0.7l0.7,0.8l0.7,0.9l0.6,0.9l0.6,1
		V66.4H704L704,66.4z M697.3,101.8V101l0-0.8l-0.1-0.8l-0.1-0.7l-0.1-0.7l-0.1-0.7l-0.2-0.7l-0.2-0.6l-0.2-0.7l-0.2-0.6l-0.2-0.6
		l-0.3-0.5l-0.3-0.6l-0.3-0.5l-0.3-0.5l-0.4-0.5l-0.4-0.4l-0.4-0.4l-0.4-0.4l-0.5-0.4l-0.5-0.3l-0.5-0.3l-0.5-0.3l-0.5-0.2l-0.6-0.2
		l-0.6-0.2l-0.6-0.1l-0.6-0.1l-0.6-0.1l-0.7,0l-0.6,0l-0.7,0l-0.7,0l-0.7,0l-0.6,0.1l-0.6,0.1l-0.6,0.1l-0.6,0.2l-0.5,0.2l-0.6,0.3
		l-0.5,0.3l-0.5,0.3l-0.5,0.4l-0.5,0.4l-0.5,0.4l-0.4,0.5l-0.4,0.5l-0.4,0.6l-0.4,0.6l-0.3,0.6l-0.3,0.7l-0.3,0.7l-0.3,0.7l-0.2,0.8
		l-0.2,0.8l-0.2,0.8l-0.2,0.8l-0.1,0.9l-0.1,0.9l-0.1,0.9l-0.1,0.9l-0.1,1v1l0,1l0,1v1l0.1,1l0.1,0.9l0.1,0.9l0.1,0.9l0.1,0.8
		l0.2,0.9l0.2,0.8l0.2,0.8l0.2,0.8l0.3,0.7l0.3,0.7l0.3,0.6l0.3,0.6l0.4,0.6l0.4,0.6l0.4,0.5l0.4,0.5l0.5,0.5l0.5,0.4l0.5,0.4
		l0.5,0.4l0.5,0.3l0.5,0.3l0.6,0.2l0.6,0.2l0.6,0.2l0.6,0.1l0.6,0.1l0.6,0.1l0.7,0l0.7,0l0.6-0.1l0.6,0l0.6-0.1l0.6-0.2l0.6-0.2
		l0.5-0.2l0.5-0.2l0.5-0.3l0.5-0.3l0.5-0.3l0.5-0.4l0.5-0.4l0.4-0.4l0.4-0.5l0.4-0.5l0.4-0.5l0.4-0.6l0.3-0.5l0.3-0.6l0.3-0.6
		l0.3-0.6l0.2-0.6l0.2-0.6l0.2-0.7l0.2-0.7l0.1-0.7l0.1-0.7l0.1-0.7l0.1-0.8l0-0.8v-0.8V101.8L697.3,101.8z M733.9,124.2h0.8l0.7,0
		l0.7-0.1l0.7-0.2l0.7-0.2l0.6-0.2l0.6-0.2l0.6-0.3l0.6-0.3l0.6-0.4l0.6-0.4l0.5-0.4l0.5-0.5l0.5-0.5l0.5-0.6l0.4-0.6l0.4-0.7
		l0.4-0.6l0.3-0.7l0.4-0.7l0.3-0.8l0.3-0.7l0.3-0.8l0.2-0.8l0.2-0.8l0.2-0.9l0.1-0.9l0.2-0.9l0.1-1l0-1l0-1v-1.1v-1.1l0-1l0-1
		l-0.1-1l-0.2-1l-0.1-0.9l-0.2-0.9l-0.2-0.8l-0.2-0.8l-0.2-0.8l-0.3-0.8l-0.3-0.7l-0.3-0.7l-0.4-0.7l-0.4-0.7l-0.4-0.6l-0.4-0.6
		l-0.5-0.5l-0.5-0.5l-0.5-0.5l-0.5-0.4l-0.5-0.4l-0.6-0.4l-0.6-0.3l-0.6-0.3l-0.6-0.2l-0.6-0.2l-0.7-0.2l-0.7-0.1l-0.7-0.1l-0.7-0.1
		h-0.8h-0.7l-0.7,0.1l-0.7,0.1l-0.7,0.1l-0.7,0.2l-0.6,0.2l-0.6,0.2l-0.6,0.3l-0.6,0.3l-0.6,0.3l-0.5,0.4l-0.5,0.4l-0.5,0.5
		l-0.5,0.5l-0.4,0.6l-0.4,0.6l-0.4,0.6l-0.4,0.7L723,94l-0.3,0.7l-0.3,0.8l-0.3,0.8l-0.2,0.8l-0.2,0.8l-0.2,0.9l-0.2,0.9l-0.2,0.9
		l-0.1,0.9l-0.1,1l-0.1,1l0,1v1.1v1.1l0,1l0.1,1l0.1,1l0.1,1l0.2,0.9l0.2,0.9l0.2,0.8l0.2,0.8l0.2,0.8l0.3,0.7l0.3,0.8l0.3,0.7
		l0.4,0.7l0.4,0.6l0.4,0.6l0.4,0.6l0.4,0.5l0.5,0.5l0.5,0.5l0.5,0.4l0.5,0.4l0.6,0.3l0.6,0.3l0.6,0.3l0.6,0.2l0.7,0.2l0.6,0.2
		l0.7,0.2l0.7,0.1l0.7,0H733.9L733.9,124.2z M733.9,130l-1.1,0l-1.1-0.1l-1.1-0.1l-1.1-0.2l-1-0.2l-1-0.3l-1-0.3l-1-0.4l-0.9-0.5
		l-0.9-0.5l-0.8-0.5l-0.9-0.6l-0.8-0.6l-0.8-0.7l-0.7-0.7l-0.7-0.8l-0.7-0.8l-0.6-0.9l-0.6-0.9l-0.5-1l-0.5-1l-0.5-1l-0.4-1.1
		l-0.4-1.1l-0.3-1.1l-0.3-1.1l-0.3-1.2l-0.2-1.2l-0.1-1.3l-0.1-1.3l-0.1-1.3l0-1.4l0-1.4l0.1-1.3l0.1-1.3l0.1-1.3l0.2-1.2L714,98
		l0.3-1.2l0.3-1.1l0.4-1.1l0.4-1l0.5-1l0.5-1l0.5-1l0.6-0.9l0.6-0.9l0.7-0.9l0.7-0.8l0.7-0.7l0.8-0.7L722,85l0.9-0.6l0.8-0.5
		l0.9-0.5l0.9-0.4l1-0.4l1-0.3l1-0.3l1-0.2l1.1-0.1l1.1-0.1l1.1-0.1h1.1h1.2l1.1,0.1l1.1,0.1l1.1,0.1l1,0.2l1,0.3l1,0.3l0.9,0.4
		l0.9,0.4l0.9,0.5l0.8,0.5L746,85l0.8,0.6l0.8,0.7l0.8,0.7l0.7,0.8l0.7,0.8l0.6,0.9l0.6,0.9l0.6,0.9l0.5,1l0.5,1l0.4,1.1l0.4,1.1
		l0.3,1.1L754,98l0.2,1.2l0.2,1.2l0.1,1.3l0.1,1.3l0.1,1.3v1.4v1.4l-0.1,1.3l-0.1,1.3l-0.1,1.3l-0.2,1.2l-0.2,1.2l-0.3,1.1l-0.3,1.1
		l-0.4,1.1l-0.4,1.1l-0.4,1l-0.5,1l-0.5,1l-0.6,0.9l-0.6,0.9l-0.7,0.8l-0.7,0.8l-0.8,0.7l-0.8,0.7l-0.8,0.6l-0.8,0.6l-0.9,0.5
		l-0.9,0.5l-0.9,0.5l-1,0.4l-1,0.3l-1,0.3l-1,0.2l-1.1,0.2l-1.1,0.1l-1.1,0.1L733.9,130L733.9,130z M759.6,116.7l6.2-1.3l0.4,1
		l0.4,1l0.5,0.9l0.6,0.8l0.6,0.8l0.7,0.7l0.8,0.7l0.8,0.6l0.9,0.6l0.9,0.4l0.9,0.4l1,0.3l1,0.3l1.1,0.2l1.1,0.1l1.2,0h1.2l1.1-0.1
		l1-0.2l1-0.2l0.9-0.3l0.8-0.4l0.8-0.4l0.7-0.5l0.7-0.6l0.5-0.6l0.3-0.3l0.2-0.3l0.2-0.3l0.2-0.3l0.1-0.3l0.1-0.4l0.1-0.4l0.1-0.4
		l0.1-0.8v-0.9v-0.6l-0.1-0.6l-0.2-0.6l-0.3-0.6l-0.4-0.5l-0.5-0.5l-0.5-0.5l-0.6-0.5l-0.7-0.4l-0.8-0.5l-0.9-0.4l-1-0.4l-1.1-0.4
		l-1.1-0.3l-1.2-0.4l-1.3-0.3l-0.7-0.2l-0.6-0.2l-0.5-0.1l-0.5-0.1l-2-0.5l-1.8-0.5l-1.7-0.5L769,106l-0.7-0.3l-0.7-0.3L767,105
		l-0.5-0.3l-0.5-0.3l-0.5-0.3l-0.4-0.3l-0.4-0.4l-0.4-0.3l-0.4-0.4l-0.3-0.4l-0.3-0.4l-0.3-0.5l-0.2-0.4l-0.2-0.5l-0.2-0.5l-0.2-0.5
		l-0.1-0.5l-0.1-0.5l-0.1-0.6l-0.1-0.6l0-0.6l0-0.6v-0.6v-0.8l0-0.7l0.1-0.7l0.1-0.7l0.2-0.7l0.2-0.7l0.2-0.6l0.2-0.6l0.3-0.6
		l0.3-0.6l0.4-0.5l0.4-0.6l0.4-0.5l0.5-0.5l0.5-0.5l0.6-0.5l0.6-0.5l0.6-0.4l0.6-0.4l0.6-0.4l0.7-0.3l0.7-0.3l0.7-0.3l0.7-0.2
		l0.8-0.2l0.8-0.2l0.8-0.1l0.8-0.1l0.8-0.1l0.8-0.1l0.9,0h0.9h0.8l0.8,0l0.7,0l0.8,0.1l0.7,0.1l0.7,0.1l0.7,0.2l0.7,0.1l0.6,0.2
		l0.6,0.2l0.6,0.2l0.6,0.2l0.6,0.3l0.6,0.3l0.5,0.3l0.5,0.3l0.5,0.4l0.5,0.4l0.5,0.4l0.5,0.4l0.4,0.5l0.4,0.5l0.4,0.5l0.4,0.5
		l0.3,0.5l0.3,0.6l0.3,0.6l0.3,0.6l0.3,0.6l0.2,0.7l0.2,0.6l0.2,0.7l-6.4,1.3l-0.3-0.8l-0.3-0.8l-0.4-0.8l-0.4-0.7l-0.5-0.6
		l-0.5-0.6l-0.6-0.5l-0.6-0.5l-0.7-0.4l-0.7-0.4l-0.8-0.3l-0.8-0.3l-0.9-0.2l-0.9-0.1l-1,0l-1-0.1l-1.1,0.1l-1,0l-1,0.2l-0.9,0.2
		l-0.8,0.2l-0.7,0.3l-0.7,0.4l-0.6,0.5l-0.6,0.5l-0.5,0.5l-0.4,0.6l-0.3,0.6l-0.3,0.7l-0.2,0.7l-0.1,0.8l0,0.8l0,0.6l0.1,0.6
		l0.2,0.5l0.3,0.5l0.3,0.5l0.4,0.5l0.5,0.5l0.6,0.4l0.7,0.4l0.7,0.4l0.8,0.4l0.9,0.4l1,0.3l1.1,0.3l1.1,0.3l1.2,0.3l1.2,0.3l1,0.2
		l0.9,0.2l0.8,0.2l1.9,0.5l1.7,0.5l1.6,0.5l1.4,0.6l0.7,0.3l0.6,0.3l0.6,0.3l0.5,0.3l0.5,0.3l0.5,0.3l0.5,0.4l0.4,0.4l0.4,0.4
		l0.3,0.4l0.3,0.4l0.3,0.4l0.3,0.5l0.3,0.4l0.2,0.5l0.2,0.5l0.2,0.5l0.1,0.5l0.1,0.5l0.2,0.6l0.1,0.6l0,0.6l0,0.6v0.6v0.8l-0.1,0.8
		l-0.1,0.7l-0.1,0.7l-0.2,0.7l-0.2,0.7l-0.2,0.7l-0.3,0.6l-0.3,0.6l-0.3,0.6l-0.4,0.6l-0.4,0.6l-0.5,0.6l-0.5,0.5l-0.5,0.5l-0.6,0.5
		l-0.6,0.5l-0.6,0.5l-0.7,0.4l-0.7,0.4l-0.7,0.4l-0.7,0.3l-0.7,0.3l-0.8,0.2l-0.8,0.2l-0.8,0.2l-0.9,0.2l-0.9,0.1l-0.9,0.1l-0.9,0
		l-0.9,0.1l-1,0l-0.9,0l-0.9-0.1l-0.9,0l-0.8-0.1l-0.9-0.1l-0.8-0.2l-0.8-0.2l-0.8-0.2l-0.8-0.2l-0.7-0.2l-0.7-0.3L769,128l-0.7-0.3
		l-0.7-0.4l-0.7-0.4l-0.6-0.4l-0.6-0.4l-0.6-0.4l-0.5-0.5l-0.5-0.5l-0.5-0.5l-0.4-0.5l-0.5-0.6l-0.4-0.6l-0.4-0.6l-0.4-0.6l-0.3-0.7
		l-0.3-0.7l-0.3-0.7l-0.3-0.7l-0.2-0.8L759.6,116.7L759.6,116.7z"/>
	<path class="st0" d="M78.7,7.7L78.7,7.7L78.7,7.7l-1.6,0l-1.6,0.1l-1.6,0.3l-1.6,0.3L70.6,9L69,9.5l-1.6,0.6l-1.6,0.7l-1.6,0.8
		l-1.6,0.9l-1.6,1l-1.5,1l-1.6,1.2l-1.5,1.2l-1.5,1.3l-1.5,1.4l-1.5,1.5l-1.5,1.5L49,24.3L47.5,26l-1.4,1.7l-1.4,1.8l-1.4,1.9
		l-1.4,1.9l-1.3,2l-1.3,2l-1.3,2.1l-1.3,2.1l-1.3,2.2L34,45.8l-1.2,2.3l-1.2,2.3l-1.1,2.3l-1.1,2.3l-1.1,2.4l-1,2.4l-1.1,2.4l-1,2.5
		l-1,2.4l-1,2.5l-0.9,2.5l-0.9,2.6l-0.8,2.5l-0.8,2.6l-0.8,2.6L18.1,85l-0.7,2.6l-0.7,2.6L16,92.9l-0.6,2.6l-0.6,2.6l-0.5,2.6
		l-0.5,2.6l-0.4,2.6l-0.4,2.6l-0.4,2.6l-0.3,2.7l-0.3,2.6l-0.2,2.6l-0.2,2.6l-0.1,2.5l-0.1,2.6l0,2.6l0,2.5l0,0l0,0l0,0l0,0l0,2.6
		l0.1,2.5l0.1,2.4l0.2,2.4l0.3,2.3l0.3,2.3l0.4,2.3l0.4,2.2l0.4,2.1l0.5,2.1l0.6,2l0.6,2l0.7,1.9l0.7,1.9l0.8,1.8l0.8,1.8l0.8,1.8
		l0.9,1.7l0.9,1.6l1,1.6l1,1.6l1,1.5l1,1.5l1.1,1.4l1.1,1.4l1.2,1.3l1.2,1.3l1.2,1.2l1.2,1.2l1.2,1.2l1.3,1.1l1.3,1.1l1.3,1l1.3,1
		l1.4,0.9l1.3,0.9l1.4,0.9l1.4,0.8l1.4,0.8l1.4,0.7l1.4,0.7l1.4,0.7l1.4,0.6l1.4,0.6l1.4,0.5l1.4,0.5l1.4,0.5l1.4,0.5L59,201
		l1.4,0.4l1.4,0.4l1.4,0.3l1.4,0.3l1.4,0.3l1.4,0.2l1.3,0.2l1.3,0.2l1.3,0.2l1.3,0.1l1.3,0.2l1.2,0l1.2,0.1l1.2,0h1.2l0,0l0,0l0,0
		l0,0h1.2l1.2,0l1.2-0.1l1.2,0l1.3-0.2l1.3-0.1l1.3-0.2l1.3-0.2l1.3-0.2l1.4-0.2l1.4-0.3l1.4-0.3l1.4-0.3l1.4-0.4l1.4-0.4l1.4-0.4
		l1.4-0.5l1.4-0.5l1.4-0.5l1.4-0.5l1.4-0.6l1.4-0.6l1.4-0.7l1.4-0.7l1.4-0.7l1.4-0.8l1.4-0.8l1.4-0.9l1.3-0.9l1.3-0.9l1.3-1l1.3-1
		l1.3-1.1l1.3-1.1l1.2-1.2l1.2-1.2l1.2-1.2l1.2-1.3l1.1-1.3l1.1-1.4l1.1-1.4l1.1-1.5l1-1.5l1-1.6l1-1.6l0.9-1.6l0.9-1.7l0.8-1.8
		l0.8-1.8l0.7-1.8l0.7-1.9l0.7-1.9l0.6-2l0.5-2l0.5-2.1l0.5-2.1l0.4-2.2l0.3-2.3l0.3-2.3l0.3-2.3l0.2-2.4l0.1-2.4l0.1-2.5v-2.6h0
		l0,0l0,0h0v-2.5l-0.1-2.6l-0.1-2.5l-0.1-2.6l-0.2-2.6l-0.2-2.6l-0.3-2.6l-0.3-2.7l-0.4-2.6l-0.4-2.6l-0.5-2.6l-0.5-2.6l-0.5-2.6
		l-0.6-2.6l-0.6-2.6l-0.6-2.6l-0.7-2.6l-0.7-2.6l-0.8-2.6l-0.8-2.6l-0.8-2.6l-0.9-2.5l-0.9-2.6l-0.9-2.5l-0.9-2.5l-1-2.4l-1-2.5
		l-1-2.4l-1.1-2.4l-1.1-2.4l-1.1-2.3l-1.1-2.3l-1.2-2.3l-1.2-2.3l-1.3-2.2l-1.3-2.2l-1.3-2.1l-1.3-2.1l-1.3-2l-1.4-2l-1.4-1.9
		l-1.4-1.9l-1.4-1.8l-1.4-1.7l-1.5-1.7l-1.5-1.6l-1.5-1.5l-1.5-1.5l-1.5-1.4l-1.5-1.3l-1.5-1.2l-1.6-1.2l-1.6-1l-1.5-1l-1.6-0.9
		l-1.6-0.8L90,10.1l-1.6-0.6L86.8,9l-1.6-0.4l-1.6-0.3l-1.6-0.3l-1.6-0.1L78.7,7.7L78.7,7.7L78.7,7.7L78.7,7.7z M78.7,13.8
		L78.7,13.8L78.7,13.8L78.7,13.8L78.7,13.8l1.4,0l1.4,0.1l1.4,0.2l1.4,0.3l1.4,0.4l1.4,0.5l1.4,0.6l1.4,0.7l1.4,0.7l1.4,0.8l1.4,0.9
		l1.4,1l1.3,1.1l1.4,1.1l1.3,1.2l1.3,1.3l1.3,1.4l1.3,1.4l1.3,1.5l1.3,1.5l1.3,1.6l1.3,1.7l1.3,1.7l1.2,1.8l1.2,1.8l1.2,1.9l1.2,1.9
		l1.2,2l1.2,2l1.1,2.1l1.1,2.1l1.1,2.1l1.1,2.3l1.1,2.3l1.1,2.3l1,2.3l1,2.4l1,2.4l1,2.4l0.9,2.4l0.9,2.5l0.9,2.5l0.8,2.5l0.8,2.5
		l0.8,2.5l0.7,2.6l0.7,2.5l0.7,2.5l0.6,2.5l0.6,2.6l0.6,2.5l0.5,2.6l0.5,2.5l0.4,2.6l0.4,2.6l0.4,2.5l0.3,2.5l0.2,2.6l0.2,2.5
		l0.2,2.5l0.1,2.5l0.1,2.5l0.1,2.5v2.4l0,0l0,0l0,0l0,0v2.4l-0.1,2.3L140,139l-0.2,2.2l-0.2,2.1l-0.3,2.1l-0.3,2.1l-0.4,2l-0.4,2
		l-0.5,1.9l-0.5,1.8l-0.6,1.8l-0.6,1.8l-0.7,1.7l-0.7,1.7l-0.7,1.6l-0.7,1.6l-0.8,1.5l-0.8,1.5l-0.9,1.4l-0.9,1.4l-0.9,1.4l-0.9,1.3
		l-1,1.3l-1,1.2l-1,1.2l-1.1,1.2l-1.1,1.1l-1.1,1.1l-1.1,1l-1.1,1l-1.2,1l-1.2,0.9l-1.2,0.9l-1.2,0.8l-1.2,0.8l-1.2,0.8l-1.2,0.8
		l-1.3,0.7l-1.3,0.7l-1.3,0.6l-1.3,0.6l-1.3,0.6l-1.3,0.5l-1.3,0.5l-1.3,0.5l-1.3,0.5l-1.3,0.4l-1.3,0.4l-1.3,0.4L94,196l-1.3,0.3
		l-1.2,0.3l-1.2,0.3L89,197l-1.2,0.2l-2.4,0.3l-2.4,0.2l-2.3,0.1l-2.2,0.1l0,0l0,0l0,0l0,0l-2.2-0.1l-2.3-0.1l-2.3-0.2l-2.4-0.3
		l-1.2-0.2l-1.2-0.2l-1.2-0.3l-1.3-0.3l-1.2-0.3l-1.3-0.3l-1.3-0.4l-1.3-0.4l-1.3-0.4l-1.3-0.5l-1.3-0.5l-1.3-0.5l-1.3-0.5l-1.3-0.6
		l-1.3-0.6l-1.2-0.6l-1.3-0.7l-1.3-0.7l-1.2-0.8l-1.3-0.8l-1.2-0.8l-1.2-0.8l-1.2-0.9l-1.2-0.9l-1.2-1l-1.1-1l-1.1-1l-1.1-1.1
		l-1.1-1.1l-1.1-1.2l-1-1.2l-1-1.2l-1-1.3l-0.9-1.3l-0.9-1.4l-0.9-1.4l-0.9-1.4l-0.8-1.5l-0.8-1.5l-0.8-1.6l-0.7-1.6l-0.7-1.7
		l-0.6-1.7l-0.6-1.8l-0.6-1.8l-0.5-1.8l-0.5-1.9l-0.4-2l-0.3-2l-0.3-2.1l-0.3-2.1l-0.2-2.1l-0.2-2.2l-0.1-2.2l-0.1-2.3v-2.4l0,0l0,0
		l0,0l0,0v-2.4l0-2.4l0.1-2.5l0.1-2.5l0.2-2.5l0.2-2.5l0.3-2.6l0.3-2.5l0.3-2.5l0.4-2.6l0.4-2.6l0.5-2.6l0.5-2.6l0.5-2.5l0.6-2.6
		l0.6-2.5l0.6-2.5l0.7-2.5l0.7-2.6l0.7-2.5l0.8-2.5l0.8-2.5l0.9-2.5l0.9-2.5l0.9-2.4l0.9-2.4l1-2.4l1-2.4l1-2.3l1-2.3l1.1-2.3
		l1.1-2.2l1.1-2.2l1.1-2.1l1.2-2.1l1.1-2l1.2-2l1.2-1.9l1.2-1.8l1.2-1.8l1.3-1.8l1.2-1.7l1.3-1.7l1.3-1.6l1.3-1.5l1.3-1.5l1.3-1.4
		l1.3-1.4l1.4-1.3l1.3-1.2l1.3-1.1l1.4-1.1l1.4-1l1.4-0.9l1.4-0.8l1.4-0.7l1.4-0.7l1.4-0.6l1.4-0.5l1.4-0.4l1.4-0.3l1.4-0.2l1.4-0.1
		L78.7,13.8L78.7,13.8z"/>
</g>
</svg>
